<svg width="200" height="195" viewBox="0 0 200 195" fill="none" xmlns="http://www.w3.org/2000/svg">
<g clip-path="url(#clip0)">
<path d="M180.273 115.089C180.304 134.738 173.087 153.709 160.003 168.369C152.938 176.301 144.373 182.758 134.803 187.369C132.917 188.282 130.99 189.116 129.023 189.869C125.483 191.242 121.847 192.351 118.143 193.189C117.063 193.449 115.983 193.669 114.883 193.859C112.623 194.292 110.327 194.626 107.993 194.859C105.993 195.069 103.893 195.179 101.803 195.219C101.243 195.219 100.693 195.219 100.133 195.219C99.5734 195.219 98.9534 195.219 98.3734 195.219C96.3134 195.179 94.2801 195.059 92.2734 194.859C89.9467 194.639 87.6501 194.306 85.3834 193.859C84.2834 193.669 83.2034 193.449 82.1234 193.189C78.4231 192.348 74.79 191.235 71.2534 189.859C69.2934 189.099 67.3667 188.266 65.4734 187.359C47.2381 178.587 32.9953 163.242 25.6035 144.405C18.2116 125.567 18.2178 104.631 25.6206 85.7983C33.0234 66.9653 47.2752 51.6289 65.5156 42.8671C83.7561 34.1052 104.635 32.5663 123.963 38.5591C126.847 39.4516 129.675 40.5135 132.433 41.7391C146.657 48.015 158.749 58.2889 167.241 71.3112C175.733 84.3335 180.257 99.5428 180.263 115.089H180.273Z" fill="white"/>
<path d="M100.143 196.229C99.5434 196.229 98.9434 196.229 98.3534 196.229C96.3534 196.229 94.2434 196.069 92.1834 195.859C89.8734 195.639 87.5234 195.309 85.1834 194.859C84.0134 194.649 82.9334 194.429 81.8834 194.179C78.1391 193.322 74.4627 192.193 70.8834 190.799C68.8834 190.009 66.8834 189.159 65.0334 188.269C59.3248 185.521 53.9554 182.118 49.0334 178.129C34.3817 166.245 24.3279 149.627 20.6002 131.134C16.8726 112.64 19.704 93.4255 28.6078 76.7932C37.5116 60.1609 51.9314 47.1499 69.3884 39.9971C86.8454 32.8442 106.249 31.9963 124.263 37.5991C127.184 38.4963 130.049 39.5648 132.843 40.7991C145.57 46.4055 156.643 55.189 164.998 66.3066C173.353 77.4242 178.71 90.5027 180.555 104.287C182.401 118.071 180.672 132.098 175.536 145.022C170.399 157.946 162.027 169.332 151.223 178.089C146.304 182.082 140.934 185.485 135.223 188.229C133.393 189.119 131.423 189.969 129.373 190.759C125.794 192.153 122.118 193.282 118.373 194.139C117.323 194.389 116.243 194.609 115.063 194.819C112.753 195.249 110.403 195.579 108.063 195.819C106.063 196.029 103.983 196.149 101.803 196.189C101.273 196.219 100.713 196.229 100.143 196.229ZM100.143 35.9591C82.2138 35.9786 64.822 42.0842 50.8148 53.2765C36.8076 64.4688 27.0149 80.0847 23.0396 97.568C19.0643 115.051 21.142 133.366 28.9326 149.515C36.7231 165.663 49.765 178.689 65.9234 186.459C67.7134 187.319 69.6334 188.149 71.6234 188.929C75.1147 190.287 78.7011 191.386 82.3534 192.219C83.3534 192.459 84.4234 192.679 85.5634 192.879C87.8334 193.299 90.1234 193.629 92.3834 193.879C94.3834 194.089 96.3834 194.209 98.3834 194.239C99.5134 194.239 100.633 194.239 101.763 194.239C103.903 194.239 105.953 194.079 107.873 193.879C110.143 193.669 112.433 193.339 114.693 192.879C115.843 192.679 116.893 192.459 117.903 192.219C121.556 191.389 125.143 190.29 128.633 188.929C130.633 188.149 132.553 187.319 134.343 186.459C147.992 179.912 159.477 169.589 167.436 156.713C175.395 143.837 179.496 128.948 179.25 113.813C179.005 98.6771 174.425 83.9293 166.052 71.3179C157.68 58.7065 145.867 48.7605 132.013 42.6591C129.29 41.4473 126.499 40.3955 123.653 39.5091C116.039 37.1539 108.114 35.9572 100.143 35.9591V35.9591Z" fill="#093F68"/>
<path d="M80.1434 10.1391C80.1434 10.1391 69.2634 6.94908 58.9534 18.1391C49.3034 28.5691 49.8234 43.5491 49.3334 55.9891C48.9934 64.6491 48.0734 74.9891 44.5334 82.9891C43.1334 86.1691 40.2834 88.0891 39.5334 91.6391C39.1649 93.5385 39.2071 95.4949 39.6573 97.3766C40.1075 99.2584 40.9552 101.022 42.1434 102.549C45.8334 107.269 52.0034 109.549 58.0334 110.169L62.0334 101.499C64.1262 104.157 65.5033 107.308 66.0334 110.649C66.6134 114.319 90.7934 113.089 93.8734 113.099C107.103 113.159 121.353 113.509 134.273 110.459C135.487 110.293 136.615 109.743 137.493 108.889C137.981 108.219 138.306 107.446 138.443 106.629C139.116 103.761 139.452 100.825 139.443 97.8791C140.714 99.463 141.536 101.359 141.823 103.369C141.963 104.419 142.033 105.629 142.883 106.269C143.733 106.909 145.043 106.659 146.113 106.339C152.233 104.519 161.233 101.689 161.833 94.3391C162.027 91.5264 161.107 88.7504 159.273 86.6091C158.453 85.6091 157.463 84.8191 156.703 83.8091C155.003 81.5791 154.523 78.7091 154.093 75.9591C152.791 68.1704 152.076 60.2949 151.953 52.3991C151.893 41.9291 149.473 31.3991 143.653 22.3991C130.563 2.06908 95.3934 -7.20092 80.1434 10.1391Z" fill="#725858"/>
<path d="M82.9134 114.279C70.4534 114.279 65.4534 113.279 65.0634 110.799C64.6487 108.186 63.6841 105.691 62.2334 103.479L58.9634 110.579C58.8773 110.767 58.7348 110.924 58.5557 111.028C58.3766 111.132 58.1696 111.178 57.9634 111.159C53.7834 110.749 46.0734 109.159 41.3834 103.159C40.1033 101.517 39.1901 99.619 38.7053 97.5938C38.2206 95.5686 38.1756 93.4631 38.5734 91.4191C39.1151 89.3912 40.1178 87.5158 41.5034 85.9391C42.3522 84.9058 43.0741 83.7744 43.6534 82.5691C47.2334 74.4391 48.0534 64.0591 48.3734 55.9091C48.4234 54.7391 48.4534 53.5391 48.4934 52.3291C48.8534 40.5191 49.2734 27.1391 58.2534 17.4191C67.5634 7.33909 77.2534 8.48909 79.8334 9.01909C85.8334 2.48909 95.0934 -0.670914 105.983 0.119086C121.373 1.22909 136.873 9.93909 144.553 21.7791C150.023 30.2191 152.943 40.7791 153.013 52.3491C153.125 60.2086 153.837 68.0481 155.143 75.7991C155.533 78.2891 155.983 81.1191 157.563 83.1991C157.981 83.7369 158.435 84.2448 158.923 84.7191C159.323 85.1191 159.723 85.5291 160.093 85.9691C162.1 88.309 163.106 91.3441 162.893 94.4191C162.223 102.629 152.353 105.569 146.463 107.329C145.573 107.589 143.723 108.139 142.343 107.099C141.899 106.684 141.545 106.183 141.302 105.625C141.06 105.068 140.934 104.467 140.933 103.859V103.539C140.827 102.805 140.643 102.084 140.383 101.389C140.225 103.243 139.924 105.082 139.483 106.889C139.317 107.859 138.919 108.775 138.323 109.559C137.318 110.59 135.999 111.258 134.573 111.459C122.573 114.299 109.653 114.219 97.1534 114.149H93.9434H91.6234C88.3534 114.239 85.4734 114.279 82.9134 114.279ZM62.0434 100.499C62.1936 100.5 62.3417 100.534 62.4767 100.6C62.6118 100.666 62.7303 100.761 62.8234 100.879C65.0315 103.667 66.4848 106.977 67.0434 110.489C67.3834 111.159 70.4834 112.709 91.5134 112.149H93.9034H97.1134C109.493 112.219 122.303 112.289 134.063 109.519C135.061 109.385 135.995 108.953 136.743 108.279C137.13 107.727 137.386 107.095 137.493 106.429C138.156 103.637 138.492 100.778 138.493 97.9091C138.497 97.7049 138.563 97.5067 138.683 97.3411C138.802 97.1756 138.97 97.0507 139.163 96.9832C139.355 96.9156 139.564 96.9088 139.761 96.9635C139.958 97.0181 140.133 97.1318 140.263 97.2891C141.661 99.0144 142.56 101.089 142.863 103.289V103.629C142.973 104.439 143.073 105.209 143.503 105.539C143.933 105.869 144.963 105.699 145.843 105.439C151.243 103.829 160.283 101.139 160.843 94.2891C161.021 91.7397 160.184 89.2234 158.513 87.2891C158.183 86.8891 157.813 86.5191 157.443 86.1491C156.898 85.6118 156.387 85.0407 155.913 84.4391C154.033 81.9591 153.523 78.7291 153.113 76.1391C151.796 68.3017 151.078 60.3755 150.963 52.4291C150.903 41.2491 148.083 31.0491 142.823 22.9391C135.473 11.5891 120.593 3.24909 105.823 2.17909C95.3134 1.42909 86.4734 4.49909 80.9134 10.8591C80.7905 10.9964 80.6321 11.097 80.4556 11.1499C80.2792 11.2029 80.0915 11.206 79.9134 11.1591C79.4634 11.0291 69.4534 8.31909 59.7334 18.8391C51.2534 28.0191 50.8534 40.9991 50.5034 52.4591C50.5034 53.6791 50.4334 54.8791 50.3834 56.0591C50.0634 64.3791 49.2134 75.0591 45.5034 83.4491C44.8608 84.7962 44.0547 86.059 43.1034 87.2091C41.9063 88.5641 41.0282 90.1701 40.5334 91.9091C40.1957 93.666 40.2387 95.475 40.6596 97.2139C41.0805 98.9527 41.8695 100.581 42.9734 101.989C46.9734 107.099 53.4934 108.669 57.4634 109.149L61.1534 101.149C61.2255 100.995 61.336 100.861 61.4743 100.761C61.6126 100.662 61.774 100.599 61.9434 100.579L62.0434 100.499Z" fill="#093F68"/>
<path d="M150.593 159.139V177.349C145.738 181.286 140.439 184.643 134.803 187.349C132.917 188.262 130.99 189.096 129.023 189.849C125.484 191.229 121.847 192.345 118.143 193.189C117.063 193.449 115.983 193.669 114.883 193.859C112.623 194.292 110.327 194.626 107.993 194.859C105.993 195.069 103.893 195.179 101.803 195.219C101.243 195.219 100.693 195.219 100.133 195.219C99.5734 195.219 98.9534 195.219 98.3734 195.219C96.3134 195.179 94.2801 195.059 92.2734 194.859C89.9467 194.639 87.6501 194.306 85.3834 193.859C84.2834 193.669 83.2034 193.449 82.1234 193.189C78.4231 192.348 74.79 191.235 71.2534 189.859C69.2934 189.099 67.3667 188.266 65.4734 187.359C59.8383 184.653 54.5389 181.296 49.6834 177.359V159.139C49.6834 136.669 64.9634 118.439 83.8234 118.439H116.443C135.313 118.439 150.593 136.669 150.593 159.139Z" fill="#7B81FF"/>
<path d="M100.143 196.229C99.5434 196.229 98.9434 196.229 98.3534 196.229C96.3534 196.229 94.2434 196.069 92.1834 195.859C89.8734 195.639 87.5234 195.309 85.1834 194.859C84.0134 194.649 82.9334 194.429 81.8834 194.179C78.1391 193.322 74.4627 192.193 70.8834 190.799C68.8834 190.009 66.8834 189.159 65.0334 188.269C59.3248 185.521 53.9554 182.118 49.0334 178.129C48.9187 178.036 48.826 177.919 48.762 177.786C48.698 177.652 48.6644 177.507 48.6634 177.359V159.139C48.6634 136.139 64.4234 117.439 83.8034 117.439H116.423C135.803 117.439 151.563 136.149 151.563 159.139V177.349C151.562 177.497 151.529 177.642 151.465 177.776C151.401 177.909 151.308 178.026 151.193 178.119C146.274 182.112 140.904 185.515 135.193 188.259C133.363 189.149 131.393 189.999 129.343 190.789C125.764 192.183 122.088 193.312 118.343 194.169C117.293 194.419 116.213 194.639 115.033 194.849C112.723 195.279 110.373 195.609 108.033 195.849C106.033 196.059 103.953 196.179 101.773 196.219C101.273 196.219 100.713 196.229 100.143 196.229ZM50.6934 176.869C55.3899 180.633 60.4994 183.85 65.9234 186.459C67.7134 187.319 69.6334 188.149 71.6234 188.929C75.1147 190.287 78.7011 191.386 82.3534 192.219C83.3534 192.459 84.4234 192.679 85.5634 192.879C87.8334 193.299 90.1234 193.629 92.3834 193.879C94.3834 194.089 96.3834 194.209 98.3834 194.239C99.5134 194.239 100.633 194.239 101.763 194.239C103.903 194.239 105.953 194.079 107.873 193.879C110.143 193.669 112.433 193.339 114.693 192.879C115.843 192.679 116.893 192.459 117.903 192.219C121.556 191.389 125.143 190.29 128.633 188.929C130.633 188.149 132.553 187.319 134.343 186.459C139.766 183.848 144.875 180.631 149.573 176.869V159.139C149.573 137.249 134.703 119.439 116.433 119.439H83.8334C65.5634 119.439 50.6934 137.249 50.6934 159.139V176.869Z" fill="#093F68"/>
<path d="M150.993 159.139V177.349C146.138 181.286 140.839 184.643 135.203 187.349C133.31 188.262 131.383 189.096 129.423 189.849C125.887 191.225 122.254 192.338 118.553 193.179C117.473 193.439 116.393 193.659 115.293 193.849C113.033 194.282 110.737 194.616 108.403 194.849C106.403 195.059 104.303 195.169 102.213 195.209C101.653 195.209 101.103 195.209 100.543 195.209C99.9834 195.209 99.3634 195.209 98.7834 195.209C96.7234 195.169 94.69 195.049 92.6834 194.849C90.3567 194.629 88.06 194.296 85.7934 193.849C84.6934 193.659 83.6034 193.439 82.5334 193.179C78.8331 192.338 75.2 191.225 71.6634 189.849C69.7034 189.089 67.7767 188.256 65.8834 187.349C60.2483 184.643 54.9489 181.286 50.0934 177.349V159.139C50.0934 136.669 65.3734 118.439 84.2334 118.439H116.853C135.713 118.439 150.993 136.669 150.993 159.139Z" fill="#7B81FF"/>
<path d="M100.543 196.229C99.9434 196.229 99.3434 196.229 98.7534 196.229C96.6834 196.229 94.6034 196.069 92.5834 195.869C90.2634 195.649 87.9134 195.309 85.5834 194.869C84.4334 194.669 83.3134 194.439 82.2734 194.189C78.529 193.337 74.8524 192.211 71.2734 190.819C69.2734 190.039 67.2734 189.179 65.4234 188.289C59.7118 185.551 54.3417 182.151 49.4234 178.159C49.3074 178.065 49.2139 177.946 49.1499 177.811C49.0858 177.676 49.0529 177.528 49.0534 177.379V159.139C49.0534 136.139 64.8134 117.439 84.1934 117.439H116.813C136.193 117.439 151.953 136.149 151.953 159.139V177.349C151.954 177.498 151.921 177.646 151.857 177.781C151.793 177.916 151.699 178.035 151.583 178.129C146.665 182.121 141.295 185.521 135.583 188.259C133.733 189.149 131.763 190.009 129.733 190.789C126.154 192.182 122.477 193.311 118.733 194.169C117.663 194.419 116.573 194.649 115.423 194.849C113.133 195.279 110.783 195.619 108.423 195.849C106.473 196.049 104.423 196.169 102.163 196.209C101.673 196.219 101.143 196.229 100.543 196.229ZM51.1434 176.869C55.8364 180.633 60.9426 183.85 66.3634 186.459C68.1734 187.329 70.0934 188.159 72.0734 188.929C75.567 190.28 79.1529 191.38 82.8034 192.219C83.8034 192.459 84.8834 192.679 86.0134 192.869C88.2734 193.309 90.5634 193.629 92.8234 193.869C94.8234 194.069 96.8234 194.189 98.8234 194.229C99.9534 194.229 101.073 194.229 102.193 194.229C104.413 194.229 106.413 194.069 108.323 193.879C110.593 193.659 112.883 193.339 115.123 192.879C116.253 192.679 117.303 192.469 118.343 192.219C121.998 191.381 125.587 190.282 129.083 188.929C131.083 188.159 132.983 187.329 134.793 186.459C140.214 183.85 145.32 180.633 150.013 176.869V159.139C150.013 137.249 135.143 119.439 116.873 119.439H84.2334C65.9634 119.439 51.0934 137.249 51.0934 159.139L51.1434 176.869Z" fill="#093F68"/>
<path d="M68.4534 188.359C68.1882 188.359 67.9338 188.254 67.7463 188.066C67.5587 187.879 67.4534 187.624 67.4534 187.359V160.639C67.0034 159.109 63.6334 147.139 66.4034 139.639C66.4493 139.516 66.5192 139.402 66.6089 139.306C66.6986 139.21 66.8064 139.132 66.9262 139.077C67.046 139.022 67.1754 138.991 67.307 138.987C67.4387 138.982 67.5699 139.003 67.6934 139.049C67.8168 139.095 67.93 139.165 68.0265 139.255C68.1229 139.344 68.2008 139.452 68.2556 139.572C68.3103 139.692 68.341 139.821 68.3458 139.953C68.3506 140.084 68.3293 140.216 68.2834 140.339C65.6134 147.519 69.3734 160.029 69.4134 160.159C69.4238 160.255 69.4238 160.353 69.4134 160.449V187.309C69.4201 187.441 69.4005 187.573 69.3558 187.698C69.311 187.823 69.242 187.937 69.1527 188.035C69.0634 188.132 68.9556 188.211 68.8356 188.267C68.7155 188.323 68.5856 188.354 68.4534 188.359Z" fill="#093F68"/>
<path d="M131.833 188.359C131.568 188.359 131.314 188.254 131.126 188.066C130.939 187.879 130.833 187.624 130.833 187.359V160.499C130.823 160.403 130.823 160.305 130.833 160.209C130.833 160.079 134.633 147.559 131.963 140.389C131.871 140.14 131.881 139.864 131.991 139.622C132.102 139.38 132.304 139.192 132.553 139.099C132.803 139.006 133.079 139.016 133.321 139.127C133.563 139.238 133.751 139.44 133.843 139.689C136.613 147.139 133.243 159.109 132.793 160.689V187.409C132.781 187.659 132.676 187.895 132.498 188.071C132.32 188.246 132.083 188.349 131.833 188.359Z" fill="#093F68"/>
<path d="M114.143 118.439V193.859C112.052 194.299 109.939 194.633 107.813 194.859C105.933 195.069 104.043 195.179 102.123 195.219C101.603 195.219 101.123 195.219 100.583 195.219H98.9634C97.0734 195.219 95.2134 195.059 93.3634 194.859C91.2377 194.634 89.125 194.3 87.0334 193.859V118.439H114.143Z" fill="white"/>
<path d="M100.583 196.229C100.033 196.229 99.4734 196.229 98.9334 196.229C97.0334 196.229 95.1134 196.069 93.2534 195.859C91.0946 195.634 88.9485 195.3 86.8234 194.859C86.596 194.81 86.3927 194.684 86.2485 194.501C86.1043 194.319 86.0282 194.092 86.0334 193.859V118.439C86.0334 118.174 86.1387 117.92 86.3263 117.732C86.5138 117.544 86.7682 117.439 87.0334 117.439H114.143C114.409 117.439 114.663 117.544 114.85 117.732C115.038 117.92 115.143 118.174 115.143 118.439V193.859C115.148 194.093 115.071 194.321 114.924 194.504C114.778 194.687 114.573 194.812 114.343 194.859C112.218 195.3 110.072 195.634 107.913 195.859C106.103 196.069 104.213 196.189 102.143 196.229C101.637 196.229 101.117 196.229 100.583 196.229ZM88.0334 193.039C89.8334 193.389 91.6534 193.659 93.4634 193.849C95.2734 194.039 97.1334 194.159 98.9934 194.199C99.9934 194.199 101.053 194.199 102.083 194.199C104.083 194.199 105.943 194.039 107.693 193.849C109.443 193.659 111.343 193.389 113.143 193.039V119.439H88.0334V193.039Z" fill="#093F68"/>
<path d="M87.0334 175.389C86.8508 175.39 86.6713 175.342 86.5144 175.248C86.3575 175.155 86.2292 175.02 86.1434 174.859L74.9634 153.859C74.8756 153.707 74.8294 153.535 74.8294 153.359C74.8294 153.184 74.8756 153.011 74.9634 152.859L80.9634 142.379L73.9634 133.909C73.8163 133.73 73.7359 133.506 73.7359 133.274C73.7359 133.042 73.8163 132.818 73.9634 132.639L86.2534 117.799C86.3374 117.697 86.4407 117.613 86.5573 117.551C86.6739 117.489 86.8015 117.451 86.9329 117.439C87.0643 117.426 87.1969 117.439 87.3231 117.478C87.4493 117.517 87.5666 117.58 87.6684 117.664C87.7702 117.748 87.8544 117.851 87.9162 117.968C87.9781 118.085 88.0164 118.212 88.0289 118.344C88.0415 118.475 88.028 118.608 87.9893 118.734C87.9506 118.86 87.8874 118.977 87.8034 119.079L76.1434 133.279L83.0434 141.649C83.1769 141.807 83.2582 142.002 83.2761 142.208C83.294 142.414 83.2476 142.621 83.1434 142.799L77.0434 153.389L87.9634 173.929C88.0444 174.081 88.0847 174.252 88.0804 174.424C88.0761 174.596 88.0273 174.765 87.9387 174.913C87.8502 175.061 87.7249 175.183 87.575 175.268C87.4251 175.354 87.2558 175.399 87.0834 175.399L87.0334 175.389Z" fill="#093F68"/>
<path d="M115.083 175.389C114.919 175.388 114.758 175.347 114.613 175.269C114.38 175.144 114.207 174.932 114.13 174.679C114.053 174.426 114.079 174.153 114.203 173.919L125.143 153.379L119.023 142.799C118.92 142.623 118.873 142.419 118.889 142.215C118.905 142.011 118.984 141.817 119.113 141.659L126.013 133.289L114.313 119.089C114.229 118.987 114.166 118.87 114.127 118.744C114.089 118.618 114.075 118.485 114.088 118.354C114.1 118.222 114.139 118.095 114.201 117.978C114.262 117.861 114.347 117.758 114.448 117.674C114.55 117.59 114.667 117.527 114.794 117.488C114.92 117.449 115.052 117.436 115.184 117.449C115.315 117.461 115.443 117.499 115.559 117.561C115.676 117.623 115.779 117.707 115.863 117.809L128.083 132.659C128.23 132.838 128.311 133.062 128.311 133.294C128.311 133.526 128.23 133.75 128.083 133.929L121.083 142.399L127.083 152.879C127.171 153.031 127.217 153.204 127.217 153.379C127.217 153.555 127.171 153.727 127.083 153.879L115.903 174.879C115.821 175.026 115.702 175.15 115.559 175.24C115.416 175.329 115.252 175.38 115.083 175.389Z" fill="#093F68"/>
<path d="M113.353 118.439C111.973 124.719 100.583 137.499 100.583 137.499C100.583 137.499 89.2034 124.719 87.8234 118.439H113.353Z" fill="#FFC9B0"/>
<path d="M100.583 138.499C100.444 138.499 100.306 138.469 100.178 138.412C100.051 138.356 99.9369 138.273 99.8434 138.169C99.3634 137.639 88.2634 125.119 86.8434 118.649C86.8118 118.503 86.8134 118.352 86.8481 118.206C86.8827 118.061 86.9494 117.925 87.0434 117.809C87.1375 117.693 87.2564 117.6 87.3914 117.536C87.5264 117.472 87.674 117.439 87.8234 117.439H113.353C113.503 117.439 113.65 117.472 113.785 117.536C113.92 117.6 114.039 117.693 114.133 117.809C114.226 117.926 114.291 118.062 114.323 118.208C114.356 118.353 114.356 118.504 114.323 118.649C112.903 125.119 101.803 137.649 101.323 138.169C101.23 138.273 101.116 138.356 100.988 138.412C100.861 138.469 100.723 138.499 100.583 138.499ZM89.1434 119.439C91.0834 124.699 98.2234 133.259 100.563 135.979C102.903 133.259 110.053 124.699 111.993 119.439H89.1434Z" fill="#093F68"/>
<path d="M94.1434 121.459V109.399H106.943V121.459" fill="#FFC9B0"/>
<path d="M106.943 122.459C106.678 122.459 106.424 122.354 106.236 122.166C106.049 121.979 105.943 121.724 105.943 121.459V110.399H95.1434V121.459C95.1434 121.724 95.038 121.979 94.8505 122.166C94.663 122.354 94.4086 122.459 94.1434 122.459C93.8782 122.459 93.6238 122.354 93.4363 122.166C93.2487 121.979 93.1434 121.724 93.1434 121.459V109.399C93.1434 109.134 93.2487 108.88 93.4363 108.692C93.6238 108.504 93.8782 108.399 94.1434 108.399H106.943C107.209 108.399 107.463 108.504 107.65 108.692C107.838 108.88 107.943 109.134 107.943 109.399V121.459C107.943 121.724 107.838 121.979 107.65 122.166C107.463 122.354 107.209 122.459 106.943 122.459Z" fill="#093F68"/>
<path d="M63.9534 86.8591C70.8238 86.8591 76.3934 82.0596 76.3934 76.1391C76.3934 70.2186 70.8238 65.4191 63.9534 65.4191C57.083 65.4191 51.5134 70.2186 51.5134 76.1391C51.5134 82.0596 57.083 86.8591 63.9534 86.8591Z" fill="#FFC9B0"/>
<path d="M63.9534 87.8591C56.5434 87.8591 50.5134 82.5991 50.5134 76.1391C50.5134 69.6791 56.5134 64.4191 63.9534 64.4191C71.3934 64.4191 77.3934 69.6791 77.3934 76.1391C77.3934 82.5991 71.3634 87.8591 63.9534 87.8591ZM63.9534 66.4191C57.6534 66.4191 52.5134 70.7791 52.5134 76.1391C52.5134 81.4991 57.6534 85.8591 63.9534 85.8591C70.2534 85.8591 75.3934 81.4991 75.3934 76.1391C75.3934 70.7791 70.2634 66.4191 63.9534 66.4191Z" fill="#093F68"/>
<path d="M136.463 86.8591C143.334 86.8591 148.903 82.0596 148.903 76.1391C148.903 70.2186 143.334 65.4191 136.463 65.4191C129.593 65.4191 124.023 70.2186 124.023 76.1391C124.023 82.0596 129.593 86.8591 136.463 86.8591Z" fill="#FFC9B0"/>
<path d="M136.473 87.8591C129.063 87.8591 123.033 82.5991 123.033 76.1391C123.033 69.6791 129.033 64.4191 136.473 64.4191C143.913 64.4191 149.903 69.6791 149.903 76.1391C149.903 82.5991 143.873 87.8591 136.473 87.8591ZM136.473 66.4191C130.163 66.4191 125.033 70.7791 125.033 76.1391C125.033 81.4991 130.163 85.8591 136.473 85.8591C142.783 85.8591 147.903 81.4991 147.903 76.1391C147.903 70.7791 142.773 66.4191 136.473 66.4191Z" fill="#093F68"/>
<path d="M123.353 44.3491L111.223 28.7991C111.223 28.7991 108.493 38.3991 106.813 44.3491H87.6834L83.1434 30.3191L77.8434 44.2191H63.0034V73.6091C63.0021 78.5358 63.9713 83.4145 65.8558 87.9666C67.7403 92.5187 70.503 96.6549 73.9863 100.139C77.4695 103.623 81.605 106.387 86.1566 108.273C90.7082 110.159 95.5867 111.129 100.513 111.129V111.129C105.44 111.129 110.319 110.159 114.87 108.273C119.422 106.387 123.557 103.623 127.04 100.139C130.524 96.6549 133.287 92.5187 135.171 87.9666C137.055 83.4145 138.025 78.5358 138.023 73.6091V44.3891L123.353 44.3491Z" fill="#FFC9B0"/>
<path d="M100.543 112.079C90.3322 112.066 80.5432 108.003 73.3238 100.782C66.1043 93.5603 62.044 83.7703 62.0334 73.5591V44.1691C62.0345 43.9068 62.1386 43.6554 62.3234 43.4691C62.416 43.3746 62.5264 43.2994 62.6483 43.2479C62.7702 43.1964 62.9011 43.1696 63.0334 43.1691H77.1834L82.2434 29.9091C82.3135 29.716 82.4413 29.5492 82.6094 29.4314C82.7776 29.3135 82.978 29.2503 83.1834 29.2503C83.3888 29.2503 83.5891 29.3135 83.7573 29.4314C83.9255 29.5492 84.0533 29.716 84.1234 29.9091L88.4134 43.1491H106.063C107.743 37.1491 110.263 28.3191 110.263 28.3191C110.315 28.143 110.414 27.9845 110.55 27.861C110.686 27.7376 110.853 27.6539 111.033 27.6191C111.217 27.579 111.408 27.5916 111.585 27.6552C111.762 27.7189 111.917 27.8312 112.033 27.9791L123.843 43.3491H138.063C138.329 43.3491 138.583 43.4545 138.77 43.642C138.958 43.8295 139.063 44.0839 139.063 44.3491V73.5191C139.063 83.7389 135.006 93.5407 127.784 100.771C120.561 108.001 110.763 112.068 100.543 112.079V112.079ZM64.0334 45.1791V73.5591C63.9195 78.4242 64.7794 83.2631 66.5625 87.7911C68.3456 92.3191 71.016 96.445 74.4166 99.9261C77.8172 103.407 81.8794 106.173 86.3645 108.062C90.8495 109.951 95.6669 110.924 100.533 110.924C105.4 110.924 110.217 109.951 114.702 108.062C119.187 106.173 123.25 103.407 126.65 99.9261C130.051 96.445 132.721 92.3191 134.504 87.7911C136.287 83.2631 137.147 78.4242 137.033 73.5591V45.3891H123.333C123.181 45.3899 123.031 45.3561 122.895 45.2903C122.758 45.2244 122.638 45.1283 122.543 45.0091L111.623 31.0091L107.753 44.6591C107.693 44.8754 107.561 45.065 107.38 45.1975C107.199 45.3299 106.978 45.3974 106.753 45.3891H87.6234C87.4113 45.3883 87.2049 45.32 87.0341 45.1942C86.8634 45.0683 86.737 44.8914 86.6734 44.6891L83.1434 33.3191L78.8534 44.5691C78.7825 44.7589 78.6556 44.9227 78.4895 45.0388C78.3234 45.1548 78.126 45.2177 77.9234 45.2191L64.0334 45.1791Z" fill="#093F68"/>
<path d="M81.8434 74.6691C83.804 74.6691 85.3934 73.0797 85.3934 71.1191C85.3934 69.1585 83.804 67.5691 81.8434 67.5691C79.8828 67.5691 78.2934 69.1585 78.2934 71.1191C78.2934 73.0797 79.8828 74.6691 81.8434 74.6691Z" fill="#093F68"/>
<path d="M118.443 74.6691C120.404 74.6691 121.993 73.0797 121.993 71.1191C121.993 69.1585 120.404 67.5691 118.443 67.5691C116.483 67.5691 114.893 69.1585 114.893 71.1191C114.893 73.0797 116.483 74.6691 118.443 74.6691Z" fill="#093F68"/>
<path d="M100.143 84.0491C98.9914 84.0405 97.8416 83.9469 96.7034 83.7691C96.574 83.7462 96.4504 83.698 96.3397 83.6272C96.2289 83.5565 96.1332 83.4647 96.058 83.357C95.9828 83.2492 95.9295 83.1277 95.9013 82.9994C95.873 82.8711 95.8704 82.7384 95.8934 82.6091C95.9163 82.4797 95.9645 82.3561 96.0352 82.2454C96.106 82.1346 96.1978 82.0389 96.3055 81.9637C96.4133 81.8885 96.5348 81.8352 96.6631 81.807C96.7914 81.7787 96.924 81.7761 97.0534 81.7991C98.8319 82.086 100.645 82.086 102.423 81.7991C102.733 80.8791 101.423 76.9791 99.4234 73.2791C99.3586 73.1626 99.3178 73.0343 99.3034 72.9018C99.2889 72.7693 99.3011 72.6352 99.3392 72.5075C99.3773 72.3797 99.4406 72.2609 99.5253 72.158C99.6099 72.0551 99.7144 71.9701 99.8324 71.9081C99.9504 71.8461 100.08 71.8083 100.212 71.797C100.345 71.7856 100.479 71.8009 100.606 71.842C100.733 71.8831 100.85 71.9491 100.951 72.0362C101.052 72.1233 101.134 72.2297 101.193 72.3491C102.193 74.1991 105.193 80.4091 104.193 82.6891C104.081 82.9383 103.912 83.1582 103.7 83.3316C103.489 83.5051 103.24 83.6274 102.973 83.6891C102.048 83.9228 101.098 84.0437 100.143 84.0491V84.0491Z" fill="#093F68"/>
<path d="M100.543 95.8691C95.8413 95.9348 91.1463 95.4821 86.5434 94.5191C86.4089 94.4953 86.2808 94.4441 86.1668 94.3689C86.0528 94.2936 85.9555 94.1958 85.8808 94.0815C85.8061 93.9672 85.7556 93.8388 85.7324 93.7042C85.7092 93.5696 85.7139 93.4317 85.746 93.299C85.7782 93.1663 85.8372 93.0415 85.9194 92.9325C86.0016 92.8234 86.1052 92.7324 86.224 92.6649C86.3427 92.5975 86.474 92.555 86.6098 92.5403C86.7456 92.5255 86.8829 92.5387 87.0134 92.5791C91.4616 93.487 95.9937 93.9195 100.533 93.8691C104.797 93.965 109.055 93.535 113.213 92.5891C113.342 92.5449 113.478 92.5273 113.613 92.5373C113.749 92.5474 113.88 92.5849 114.001 92.6476C114.121 92.7103 114.228 92.7969 114.314 92.902C114.399 93.0072 114.463 93.1287 114.5 93.2592C114.538 93.3897 114.548 93.5265 114.531 93.6611C114.514 93.7958 114.469 93.9256 114.4 94.0425C114.331 94.1594 114.239 94.2611 114.13 94.3413C114.02 94.4216 113.896 94.4786 113.763 94.5091C113.573 94.5691 108.923 95.8691 100.543 95.8691Z" fill="#093F68"/>
<path d="M87.8934 61.3991H71.4234C71.0017 61.3991 70.5973 61.2316 70.2991 60.9334C70.0009 60.6352 69.8334 60.2308 69.8334 59.8091C69.8334 59.3874 70.0009 58.983 70.2991 58.6848C70.5973 58.3866 71.0017 58.2191 71.4234 58.2191H87.8934C88.3151 58.2191 88.7195 58.3866 89.0177 58.6848C89.3159 58.983 89.4834 59.3874 89.4834 59.8091C89.4834 60.2308 89.3159 60.6352 89.0177 60.9334C88.7195 61.2316 88.3151 61.3991 87.8934 61.3991Z" fill="#093F68"/>
<path d="M128.863 61.3991H112.393C111.972 61.3991 111.567 61.2316 111.269 60.9334C110.971 60.6352 110.803 60.2308 110.803 59.8091C110.803 59.3874 110.971 58.983 111.269 58.6848C111.567 58.3866 111.972 58.2191 112.393 58.2191H128.863C129.285 58.2191 129.69 58.3866 129.988 58.6848C130.286 58.983 130.453 59.3874 130.453 59.8091C130.453 60.2308 130.286 60.6352 129.988 60.9334C129.69 61.2316 129.285 61.3991 128.863 61.3991V61.3991Z" fill="#093F68"/>
<path d="M95.6334 143.989C95.4923 143.986 95.3535 143.954 95.2259 143.893C95.0984 143.833 94.9851 143.746 94.8934 143.639C86.0534 133.229 86.0534 132.889 86.0534 132.439C86.0551 132.207 86.1376 131.983 86.2865 131.805C86.4355 131.627 86.6418 131.506 86.87 131.464C87.0982 131.421 87.3341 131.459 87.5372 131.571C87.7403 131.684 87.8981 131.863 87.9834 132.079C88.4534 132.839 92.1334 137.289 95.6734 141.479L99.8434 136.799C100.025 136.621 100.269 136.518 100.524 136.513C100.779 136.508 101.026 136.601 101.215 136.772C101.404 136.943 101.52 137.18 101.541 137.434C101.561 137.688 101.483 137.94 101.323 138.139L96.3234 143.629C96.2383 143.732 96.1334 143.817 96.0148 143.879C95.8963 143.941 95.7666 143.978 95.6334 143.989Z" fill="#093F68"/>
<path d="M105.143 143.989C105.004 143.989 104.866 143.959 104.738 143.902C104.611 143.846 104.497 143.763 104.403 143.659L99.4034 138.169C99.2437 137.97 99.1661 137.718 99.1862 137.464C99.2064 137.21 99.3229 136.973 99.5119 136.802C99.7009 136.631 99.9482 136.538 100.203 136.543C100.458 136.548 100.701 136.651 100.883 136.829L105.073 141.479C108.613 137.289 112.293 132.839 112.763 132.079C112.849 131.863 113.006 131.684 113.21 131.571C113.413 131.459 113.649 131.421 113.877 131.464C114.105 131.506 114.311 131.627 114.46 131.805C114.609 131.983 114.692 132.207 114.693 132.439C114.693 132.889 114.693 133.229 105.853 143.639C105.762 143.746 105.648 143.833 105.521 143.893C105.393 143.954 105.254 143.986 105.113 143.989H105.143Z" fill="#093F68"/>
<path d="M100.543 196.229C100.278 196.229 100.024 196.124 99.8363 195.936C99.6487 195.749 99.5434 195.494 99.5434 195.229V140.039C99.5434 139.774 99.6487 139.52 99.8363 139.332C100.024 139.144 100.278 139.039 100.543 139.039C100.809 139.039 101.063 139.144 101.25 139.332C101.438 139.52 101.543 139.774 101.543 140.039V195.229C101.543 195.494 101.438 195.749 101.25 195.936C101.063 196.124 100.809 196.229 100.543 196.229Z" fill="#093F68"/>
</g>
<defs>
<clipPath id="clip0">
<rect width="200" height="195" fill="white"/>
</clipPath>
</defs>
</svg>
