<?xml version="1.0" encoding="UTF-8" standalone="no"?> <svg id="Capa_1" enable-background="new 0 0 512 512" height="512" viewBox="0 0 512 512" width="512" xmlns="http://www.w3.org/2000/svg"><path style="fill:#FFFFFF;" d="m273.675 48.966c2.716-9.775-1.112-20.15-9.526-25.818l-32.464-21.868c-2-1.347-4.524-1.651-6.787-.816-2.262.834-3.984 2.705-4.63 5.028l-12.878 46.341c-.006.022-.009.044-.015.066l-48.948.354c-10.451.076-19.704 7.162-22.502 17.231l-10.695 38.484c-2.798 10.07 1.473 20.913 10.386 26.37l41.956 25.686-49.193.356c-10.451.075-19.704 7.161-22.502 17.231l-10.695 38.484c-2.798 10.069 1.473 20.913 10.386 26.37l41.956 25.686-49.193.356c-10.451.076-19.704 7.162-22.502 17.231l-10.839 39.002c-2.716 9.775 1.112 20.15 9.526 25.818l32.464 21.869c1.255.845 2.717 1.28 4.191 1.28.875 0 1.753-.153 2.596-.464 2.262-.834 3.984-2.705 4.63-5.028l12.878-46.341c.006-.022.009-.044.015-.066l48.947-.355c10.451-.075 19.704-7.161 22.502-17.231l10.695-38.484c2.798-10.069-1.473-20.913-10.386-26.37l-20.365-12.468c-3.533-2.163-8.149-1.052-10.313 2.48-2.163 3.533-1.052 8.15 2.48 10.313l20.365 12.467c3.231 1.979 4.78 5.911 3.766 9.561l-1.687 6.068-21.379.155-62.516-38.273c-3.231-1.979-4.78-5.911-3.766-9.561l1.687-6.068 98.963-.717c10.451-.076 19.704-7.162 22.502-17.231l10.695-38.484c2.798-10.069-1.473-20.913-10.386-26.371l-20.365-12.468c-3.533-2.163-8.149-1.052-10.313 2.48-2.163 3.533-1.052 8.15 2.48 10.312l20.365 12.467c3.231 1.979 4.78 5.911 3.766 9.562l-1.687 6.068-21.378.155-62.516-38.273c-3.231-1.979-4.78-5.91-3.766-9.561l1.687-6.068 98.963-.717c10.451-.075 19.704-7.161 22.502-17.231zm-166.944 305.21-23.834-16.056c-3.051-2.055-4.439-5.817-3.454-9.361l1.831-6.586 34.42-.25zm81.557-53.967c-1.015 3.651-4.37 6.22-8.159 6.248l-94.678.686 4.832-17.386c1.015-3.651 4.37-6.22 8.159-6.248l94.678-.686zm30.048-108.128c-1.015 3.651-4.37 6.22-8.159 6.248l-94.678.686 4.832-17.386c1.015-3.651 4.37-6.22 8.159-6.248l94.678-.686zm13.599-172.547 23.834 16.055c3.051 2.055 4.439 5.817 3.454 9.361l-1.831 6.586-34.42.249zm16.449 64.419c-1.015 3.651-4.37 6.22-8.159 6.248l-94.678.686 4.832-17.386c1.015-3.651 4.37-6.22 8.159-6.248l94.678-.686z"/><path style="fill:#FFFFFF;" d="m430.979 368.083c-2.186-10.22-10.995-17.851-21.423-18.556l-23.824-1.612c-4.138-.28-7.71 2.844-7.989 6.977-.28 4.133 2.844 7.71 6.977 7.989l23.824 1.612c3.781.256 6.975 3.022 7.768 6.728l1.317 6.158-18.873 10.044-73.134-4.949c-3.781-.256-6.975-3.022-7.768-6.728l-1.317-6.158 87.366-46.492c9.226-4.91 14.143-15.476 11.957-25.696l-8.355-39.059c-2.187-10.22-10.996-17.851-21.423-18.556l-23.824-1.612c-4.134-.282-7.709 2.844-7.989 6.977s2.844 7.709 6.977 7.989l23.824 1.612c3.781.256 6.975 3.022 7.768 6.728l1.317 6.158-18.875 10.043-73.134-4.948c-3.781-.256-6.975-3.022-7.768-6.728l-1.317-6.158 87.366-46.492c9.226-4.91 14.143-15.477 11.957-25.697l-8.468-39.585c-2.122-9.921-10.322-17.341-20.404-18.465l-38.902-4.336c-2.398-.267-4.775.634-6.392 2.421-1.618 1.788-2.277 4.244-1.773 6.601l10.061 47.033c.005.022.015.042.02.064l-43.214 22.996c-9.226 4.909-14.143 15.476-11.957 25.696l8.355 39.059c2.187 10.22 10.996 17.85 21.423 18.556l49.082 3.321-43.428 23.11c-9.226 4.91-14.143 15.477-11.957 25.697l8.355 39.059c2.187 10.22 10.996 17.85 21.423 18.556l49.082 3.321-43.428 23.11c-9.227 4.91-14.143 15.477-11.957 25.696l8.468 39.585c2.122 9.92 10.322 17.341 20.404 18.465l38.902 4.336c.278.031.556.046.832.046 2.106 0 4.13-.887 5.561-2.468 1.618-1.788 2.277-4.244 1.773-6.601l-10.061-47.033c-.005-.022-.012-.043-.017-.065l43.211-22.995c9.226-4.91 14.143-15.476 11.957-25.696zm-97.69-226.753 28.561 3.184c3.655.407 6.628 3.098 7.398 6.695l1.43 6.685-30.386 16.17zm-42.931 76.297 83.583-44.479 3.775 17.645c.792 3.706-.99 7.537-4.335 9.317l-83.583 44.479-3.775-17.645c-.793-3.706.99-7.537 4.335-9.317zm23.476 109.743 83.583-44.479 3.775 17.645c.792 3.706-.99 7.537-4.335 9.317l-83.583 44.479-3.775-17.645c-.793-3.705.99-7.537 4.335-9.317zm63.567 168.524-28.56-3.184c-3.656-.408-6.629-3.098-7.398-6.695l-1.43-6.684 30.386-16.17zm42.93-76.298-83.582 44.479-3.775-17.646c-.792-3.705.99-7.536 4.335-9.316l83.582-44.479 3.775 17.645c.793 3.706-.989 7.538-4.335 9.317z"/><path style="fill:#FFFFFF;" d="m256.002 368.742c-13.545 0-24.564-11.02-24.564-24.564 0-4.142-3.358-7.5-7.5-7.5s-7.5 3.358-7.5 7.5c0 13.545-11.02 24.564-24.564 24.564-4.142 0-7.5 3.358-7.5 7.5s3.358 7.5 7.5 7.5c13.545 0 24.564 11.02 24.564 24.564 0 4.142 3.358 7.5 7.5 7.5s7.5-3.358 7.5-7.5c0-13.545 11.02-24.564 24.564-24.564 4.142 0 7.5-3.358 7.5-7.5s-3.358-7.5-7.5-7.5zm-32.065 16.41c-2.478-3.421-5.489-6.433-8.911-8.91 3.422-2.478 6.433-5.489 8.911-8.91 2.478 3.421 5.489 6.433 8.911 8.91-3.422 2.478-6.433 5.489-8.911 8.91z"/><path style="fill:#FFFFFF;" d="m312.115 63.097c13.545 0 24.564 11.02 24.564 24.565 0 4.142 3.358 7.5 7.5 7.5s7.5-3.358 7.5-7.5c0-13.545 11.02-24.565 24.564-24.565 4.142 0 7.5-3.358 7.5-7.5s-3.358-7.5-7.5-7.5c-13.545 0-24.564-11.02-24.564-24.564 0-4.142-3.358-7.5-7.5-7.5s-7.5 3.358-7.5 7.5c0 13.545-11.02 24.564-24.564 24.564-4.142 0-7.5 3.358-7.5 7.5s3.358 7.5 7.5 7.5zm32.064-16.411c2.478 3.421 5.489 6.433 8.911 8.91-3.422 2.478-6.433 5.489-8.911 8.911-2.478-3.422-5.489-6.433-8.911-8.911 3.422-2.477 6.434-5.488 8.911-8.91z"/><path style="fill:#FFFFFF;" d="m175.841 432.871h-8.532v-8.532c0-4.142-3.358-7.5-7.5-7.5s-7.5 3.358-7.5 7.5v8.532h-8.532c-4.142 0-7.5 3.358-7.5 7.5s3.358 7.5 7.5 7.5h8.532v8.532c0 4.142 3.358 7.5 7.5 7.5s7.5-3.358 7.5-7.5v-8.532h8.532c4.142 0 7.5-3.358 7.5-7.5s-3.358-7.5-7.5-7.5z"/><path style="fill:#FFFFFF;" d="m440.373 96.194h-8.532v-8.532c0-4.142-3.358-7.5-7.5-7.5s-7.5 3.358-7.5 7.5v8.532h-8.532c-4.142 0-7.5 3.358-7.5 7.5s3.358 7.5 7.5 7.5h8.532v8.532c0 4.142 3.358 7.5 7.5 7.5s7.5-3.358 7.5-7.5v-8.532h8.532c4.142 0 7.5-3.358 7.5-7.5s-3.358-7.5-7.5-7.5z"/></svg>