<svg width="190" height="190" viewBox="0 0 190 190" fill="none" xmlns="http://www.w3.org/2000/svg">
<path d="M188.46 95C188.46 119.787 178.613 143.559 161.086 161.086C143.559 178.613 119.787 188.46 95 188.46C70.2129 188.46 46.441 178.613 28.9138 161.086C11.3867 143.559 1.54 119.787 1.54 95C1.54 70.2129 11.3867 46.441 28.9138 28.9138C46.441 11.3867 70.2129 1.54001 95 1.54001C119.787 1.54001 143.559 11.3867 161.086 28.9138C178.613 46.441 188.46 70.2129 188.46 95Z" fill="white"/>
<path d="M95 189.46C82.5916 189.473 70.3025 187.039 58.8362 182.296C47.3698 177.554 36.9514 170.597 28.1774 161.823C19.4033 153.049 12.4459 142.63 7.70354 131.164C2.96115 119.697 0.526844 107.408 0.540001 95C0.54 82.5954 2.98328 70.3121 7.73034 58.8517C12.4774 47.3913 19.4353 36.9781 28.2067 28.2067C36.9781 19.4353 47.3913 12.4774 58.8517 7.73035C70.3121 2.98329 82.5953 0.540009 95 0.540009C107.405 0.540009 119.688 2.98329 131.148 7.73035C142.609 12.4774 153.022 19.4353 161.793 28.2067C170.565 36.9781 177.523 47.3913 182.27 58.8517C187.017 70.3121 189.46 82.5954 189.46 95C189.46 107.405 187.017 119.688 182.27 131.148C177.523 142.609 170.565 153.022 161.793 161.793C153.022 170.565 142.609 177.523 131.148 182.27C119.688 187.017 107.405 189.46 95 189.46ZM95 2.54001C77.1773 2.56025 59.7388 7.72119 44.7757 17.4039C29.8127 27.0866 17.9603 40.88 10.64 57.13C5.27339 69.0323 2.51175 81.9438 2.54 95C2.54 107.142 4.93154 119.165 9.57809 130.383C14.2246 141.601 21.0352 151.793 29.6209 160.379C38.2066 168.965 48.3993 175.775 59.6171 180.422C70.8349 185.068 82.858 187.46 95 187.46C107.142 187.46 119.165 185.068 130.383 180.422C141.601 175.775 151.793 168.965 160.379 160.379C168.965 151.793 175.775 141.601 180.422 130.383C185.068 119.165 187.46 107.142 187.46 95C187.488 81.9438 184.727 69.0323 179.36 57.13C172.04 40.88 160.187 27.0866 145.224 17.4039C130.261 7.72119 112.823 2.56025 95 2.54001Z" fill="#093F68"/>
<path d="M38 67.13L59.37 70.07C59.37 70.07 82.69 62.94 85.16 62.94C87.63 62.94 98.05 75.56 98.05 75.56C98.05 75.56 144.41 111.5 146.05 114.51C147.69 117.52 146.05 127.27 135.35 125.35C135.35 125.35 135.35 132.89 130.96 133.99C128.335 134.658 125.585 134.658 122.96 133.99C122.96 133.99 122.7 139.83 117.49 141.2C112.28 142.57 110.34 140.85 110.34 140.85C110.34 140.85 107.26 149.03 101.5 147.38C95.74 145.73 89.82 140.67 86.5 137.65C83.18 134.63 57.64 116.16 57.64 116.16L26.46 114L38 67.13Z" fill="#FFC9B0"/>
<path d="M103.11 148.61C102.49 148.609 101.874 148.518 101.28 148.34C96.87 147.08 91.85 143.83 85.92 138.34C82.92 135.55 59.92 118.94 57.38 117.09L26.38 114.91C26.2354 114.899 26.0948 114.858 25.968 114.787C25.8412 114.717 25.7312 114.62 25.6455 114.503C25.5599 114.386 25.5008 114.252 25.4722 114.11C25.4436 113.968 25.4463 113.821 25.48 113.68L37 66.89C37.0574 66.648 37.2029 66.436 37.4081 66.2955C37.6133 66.1549 37.8636 66.0959 38.11 66.13L59.26 69.05C62.48 68.05 82.64 61.94 85.13 61.94C87.62 61.94 95.45 70.94 98.72 74.84C106.72 81.02 145.25 111 146.9 114.03C147.99 116.03 147.9 120.03 145.74 122.93C144.56 124.58 141.79 127.12 136.27 126.5C136.07 128.83 135.17 133.96 131.18 134.96C128.778 135.559 126.277 135.644 123.84 135.21C123.599 136.835 122.898 138.357 121.821 139.597C120.744 140.837 119.335 141.744 117.76 142.21C114.24 143.13 112.04 142.74 110.84 142.28C109.89 144.29 107.31 148.61 103.11 148.61ZM27.71 113.05L57.8 115.16C57.9871 115.176 58.1666 115.242 58.32 115.35C59.32 116.1 83.97 133.9 87.32 136.92C93.01 142.14 97.78 145.25 101.88 146.42C106.69 147.8 109.49 140.57 109.52 140.5C109.576 140.349 109.669 140.213 109.789 140.105C109.909 139.997 110.053 139.92 110.21 139.88C110.368 139.84 110.534 139.839 110.692 139.877C110.851 139.915 110.998 139.992 111.12 140.1C111.12 140.1 112.84 141.42 117.34 140.23C121.84 139.04 122.06 134.15 122.07 133.94C122.078 133.787 122.121 133.639 122.196 133.505C122.27 133.372 122.374 133.257 122.5 133.17C122.626 133.083 122.769 133.027 122.92 133.004C123.071 132.982 123.225 132.994 123.37 133.04C125.804 133.637 128.346 133.637 130.78 133.04C133.78 132.3 134.41 127.25 134.42 125.37C134.42 125.223 134.452 125.078 134.514 124.945C134.576 124.812 134.667 124.694 134.78 124.6C134.892 124.509 135.022 124.442 135.162 124.406C135.302 124.37 135.448 124.364 135.59 124.39C139.5 125.09 142.48 124.19 144.21 121.78C145.94 119.37 145.92 116.26 145.21 115.01C143.86 112.77 115.92 90.67 97.47 76.37C97.4121 76.3251 97.3585 76.2749 97.31 76.22C92.56 70.47 86.57 64.15 85.17 63.96C83.5 63.96 68.65 68.31 59.69 71.05C59.5484 71.0812 59.4016 71.0812 59.26 71.05L38.78 68.23L27.71 113.05Z" fill="#093F68"/>
<path d="M64.9385 115.841C67.3039 113.673 67.4652 109.999 65.2989 107.636C63.1325 105.273 59.4588 105.115 57.0934 107.283L49.3975 114.337C47.0321 116.506 46.8708 120.179 49.0372 122.542C51.2035 124.906 54.8772 125.064 57.2426 122.896L64.9385 115.841Z" fill="#E28362"/>
<path d="M53.33 125.42C52.3899 125.418 51.4603 125.222 50.5997 124.843C49.7392 124.465 48.9664 123.912 48.33 123.22C47.1103 121.889 46.4694 120.127 46.5481 118.323C46.6269 116.519 47.4189 114.82 48.75 113.6L56.46 106.54C57.1022 105.863 57.8769 105.324 58.7358 104.959C59.5947 104.593 60.5196 104.408 61.4531 104.415C62.3865 104.422 63.3086 104.621 64.1619 105C65.0153 105.378 65.7818 105.928 66.4138 106.615C67.0458 107.301 67.5298 108.111 67.8358 108.993C68.1418 109.875 68.2632 110.81 68.1926 111.741C68.1219 112.672 67.8606 113.578 67.4249 114.404C66.9892 115.229 66.3885 115.956 65.66 116.54L57.95 123.61C56.6935 124.775 55.0432 125.421 53.33 125.42ZM49.79 121.87C50.6526 122.808 51.852 123.365 53.125 123.419C54.398 123.474 55.6406 123.021 56.58 122.16L64.28 115.1C64.7758 114.682 65.182 114.169 65.4743 113.59C65.7665 113.011 65.9388 112.38 65.9807 111.733C66.0226 111.086 65.9333 110.437 65.7182 109.825C65.503 109.214 65.1665 108.652 64.7288 108.174C64.291 107.696 63.7611 107.311 63.1709 107.043C62.5807 106.774 61.9424 106.628 61.2943 106.613C60.6462 106.598 60.0017 106.714 59.3995 106.954C58.7973 107.194 58.2498 107.553 57.79 108.01L50.08 115.08C49.1422 115.943 48.5849 117.142 48.5306 118.415C48.4762 119.688 48.9291 120.931 49.79 121.87Z" fill="#093F68"/>
<path d="M76.1315 121.744C78.4969 119.576 78.6582 115.902 76.4918 113.539C74.3255 111.176 70.6518 111.018 68.2864 113.186L56.8457 123.673C54.4803 125.841 54.319 129.515 56.4853 131.878C58.6517 134.241 62.3254 134.4 64.6908 132.231L76.1315 121.744Z" fill="#E28362"/>
<path d="M60.79 134.76H60.49C59.1448 134.702 57.8471 134.246 56.761 133.45C55.6748 132.654 54.8489 131.554 54.3877 130.289C53.9264 129.024 53.8505 127.651 54.1695 126.343C54.4885 125.035 55.1882 123.851 56.18 122.94L67.63 112.45C68.276 111.791 69.0494 111.27 69.9031 110.92C70.7568 110.569 71.6729 110.396 72.5956 110.411C73.5184 110.426 74.4285 110.628 75.2705 111.006C76.1124 111.384 76.8687 111.929 77.4932 112.609C78.1176 113.288 78.5972 114.088 78.9028 114.958C79.2084 115.829 79.3335 116.753 79.2705 117.674C79.2075 118.595 78.9578 119.493 78.5365 120.314C78.1152 121.135 77.5312 121.862 76.82 122.45L65.38 133C64.1256 134.143 62.4868 134.771 60.79 134.76ZM72.22 112.66C71.0203 112.659 69.8641 113.109 68.98 113.92L57.53 124.41C56.831 125.05 56.3369 125.883 56.1097 126.803C55.8824 127.724 55.9322 128.691 56.2527 129.583C56.5732 130.475 57.1502 131.253 57.9112 131.818C58.6722 132.383 59.5833 132.711 60.53 132.76C61.1631 132.791 61.796 132.696 62.3918 132.479C62.9876 132.263 63.5343 131.93 64 131.5L75.47 121C76.1823 120.345 76.6804 119.49 76.8991 118.547C77.1178 117.604 77.047 116.617 76.696 115.715C76.3449 114.813 75.7299 114.038 74.9314 113.491C74.1328 112.945 73.1879 112.651 72.22 112.65V112.66Z" fill="#093F68"/>
<path d="M96.2193 136.574C98.5587 134.378 98.6765 130.703 96.4822 128.365C94.2879 126.028 90.6126 125.913 88.2731 128.109L76.9577 138.731C74.6182 140.928 74.5005 144.603 76.6948 146.94C78.889 149.278 82.5643 149.392 84.9038 147.196L96.2193 136.574Z" fill="#E28362"/>
<path d="M80.94 149.77H80.72C79.8263 149.744 78.9465 149.542 78.1312 149.174C77.316 148.807 76.5815 148.282 75.97 147.63C74.7377 146.313 74.0773 144.561 74.1336 142.758C74.1898 140.955 74.958 139.248 76.27 138.01L87.59 127.38C88.9179 126.219 90.6447 125.618 92.4067 125.704C94.1687 125.791 95.8284 126.558 97.0363 127.843C98.2442 129.129 98.9061 130.833 98.8825 132.597C98.859 134.361 98.1518 136.047 96.91 137.3L85.59 147.93C84.3316 149.114 82.668 149.773 80.94 149.77ZM92.25 127.54C91.0278 127.539 89.8512 128.004 88.96 128.84L77.64 139.46C76.7127 140.335 76.1699 141.542 76.1305 142.817C76.0912 144.091 76.5584 145.329 77.43 146.26C78.3034 147.187 79.5087 147.729 80.7816 147.769C82.0544 147.808 83.291 147.341 84.22 146.47L95.54 135.85C96.2404 135.19 96.7267 134.334 96.9358 133.395C97.1449 132.455 97.0672 131.474 96.7129 130.579C96.3585 129.684 95.7438 128.916 94.9481 128.374C94.1525 127.833 93.2126 127.542 92.25 127.54Z" fill="#093F68"/>
<path d="M87.1488 128.404C89.4359 126.153 89.467 122.476 87.2183 120.191C84.9696 117.906 81.2926 117.878 79.0055 120.128L65.9548 132.971C63.6677 135.222 63.6366 138.899 65.8854 141.184C68.1341 143.469 71.8111 143.497 74.0982 141.246L87.1488 128.404Z" fill="#E28362"/>
<path d="M70.05 143.92H70C69.1072 143.922 68.2229 143.747 67.3987 143.403C66.5746 143.06 65.8271 142.556 65.2 141.92C63.9367 140.633 63.2357 138.897 63.2507 137.093C63.2657 135.29 63.9955 133.566 65.28 132.3L78.33 119.45C78.9591 118.787 79.715 118.258 80.5529 117.894C81.3907 117.529 82.2933 117.337 83.207 117.329C84.1206 117.321 85.0266 117.496 85.8709 117.845C86.7153 118.194 87.4808 118.71 88.1218 119.361C88.7628 120.012 89.2662 120.785 89.6021 121.635C89.938 122.485 90.0995 123.393 90.0769 124.307C90.0544 125.22 89.8482 126.12 89.4708 126.952C89.0934 127.784 88.5524 128.531 87.88 129.15L74.88 142C74.2405 142.622 73.4847 143.111 72.656 143.44C71.8273 143.77 70.9417 143.933 70.05 143.92ZM83.11 119.46C81.8458 119.458 80.6315 119.954 79.73 120.84L66.73 133.69C66.0502 134.356 65.5834 135.208 65.389 136.139C65.1947 137.071 65.2814 138.039 65.6382 138.92C65.995 139.802 66.6059 140.558 67.3931 141.092C68.1804 141.626 69.1087 141.915 70.06 141.92C71.3328 141.92 72.5557 141.425 73.47 140.54L86.53 127.69C86.9793 127.248 87.337 126.721 87.5827 126.14C87.8284 125.559 87.9572 124.936 87.9618 124.305C87.9665 123.675 87.8468 123.05 87.6097 122.465C87.3726 121.881 87.0227 121.349 86.58 120.9C86.1393 120.446 85.6124 120.085 85.0303 119.838C84.4481 119.591 83.8225 119.462 83.19 119.46H83.11Z" fill="#093F68"/>
<path d="M157.59 64.59C157.59 64.59 134.59 68.15 131.25 67.59C127.91 67.03 106 56.91 101.08 55.26C96.16 53.61 86.81 57.79 82.42 61.46C78.03 65.13 65.69 78.3 67.33 86.26C68.97 94.22 79.13 89 87.09 78.58L98.09 75.58L143.32 112L155.39 110.64L157.59 64.59Z" fill="#E28362"/>
<path d="M143.32 113C143.091 113.001 142.869 112.923 142.69 112.78L97.83 76.62L87.67 79.41C81.57 87.31 74.58 91.94 70.22 90.94C68.82 90.62 67.01 89.58 66.35 86.42C64.49 77.42 78.27 63.59 81.78 60.65C86.39 56.79 96.08 52.5 101.39 54.27C103.55 54.99 108.8 57.27 114.39 59.67C121.2 62.67 129.67 66.28 131.39 66.58C133.68 66.96 148.2 64.98 157.39 63.58C157.538 63.5554 157.689 63.5642 157.832 63.6057C157.976 63.6473 158.108 63.7205 158.22 63.82C158.33 63.919 158.417 64.0413 158.474 64.1779C158.531 64.3145 158.557 64.4621 158.55 64.61L156.35 110.71C156.352 110.957 156.261 111.196 156.097 111.381C155.933 111.566 155.706 111.683 155.46 111.71L143.43 113H143.32ZM98.06 74.52C98.289 74.519 98.5114 74.5967 98.69 74.74L143.62 111L154.43 109.78L156.53 65.78C151.41 66.56 134.1 69.11 131.09 68.61C129.22 68.3 122.94 65.61 113.57 61.61C108.05 59.22 102.83 56.96 100.76 56.27C96.17 54.74 87.21 58.81 83.06 62.27C78.76 65.87 66.79 78.72 68.31 86.1C68.67 87.82 69.44 88.79 70.66 89.1C74.21 89.91 80.78 85.26 86.29 78.04C86.4224 77.8651 86.6086 77.7386 86.82 77.68L97.82 74.68C97.8931 74.6274 97.9741 74.5869 98.06 74.56V74.52Z" fill="#093F68"/>
<path d="M135.37 126.35C135.141 126.351 134.919 126.273 134.74 126.13L113.61 109C113.419 108.828 113.302 108.59 113.282 108.334C113.262 108.078 113.341 107.825 113.503 107.626C113.665 107.427 113.897 107.297 114.151 107.265C114.406 107.232 114.663 107.298 114.87 107.45L136 124.57C136.102 124.653 136.187 124.756 136.249 124.872C136.311 124.988 136.35 125.115 136.363 125.246C136.376 125.377 136.363 125.509 136.325 125.635C136.286 125.761 136.224 125.878 136.14 125.98C136.047 126.095 135.93 126.187 135.796 126.251C135.663 126.315 135.518 126.349 135.37 126.35Z" fill="#093F68"/>
<path d="M123 135C122.788 135.001 122.582 134.934 122.41 134.81L100.19 118.48C99.9791 118.323 99.8389 118.088 99.7995 117.828C99.7602 117.568 99.8251 117.303 99.98 117.09C100.136 116.878 100.369 116.735 100.63 116.694C100.89 116.653 101.156 116.716 101.37 116.87L123.59 133.19C123.761 133.314 123.889 133.489 123.955 133.691C124.02 133.892 124.02 134.109 123.954 134.31C123.889 134.511 123.761 134.686 123.59 134.81C123.418 134.934 123.212 135.001 123 135Z" fill="#093F68"/>
<path d="M110.4 141.85C110.152 141.849 109.913 141.757 109.73 141.59L92 125.4C91.8168 125.213 91.7141 124.962 91.7141 124.7C91.7141 124.438 91.8168 124.187 92 124C92.1793 123.806 92.4284 123.69 92.6926 123.679C92.9569 123.668 93.2148 123.762 93.41 123.94L111.11 140.12C111.26 140.256 111.365 140.435 111.411 140.632C111.457 140.829 111.443 141.035 111.369 141.224C111.295 141.413 111.166 141.574 110.998 141.688C110.831 141.802 110.632 141.862 110.43 141.86L110.4 141.85Z" fill="#093F68"/>
<path d="M118.65 85.39C109.52 85.39 98.03 76.79 97.46 76.39C97.3549 76.3112 97.2664 76.2125 97.1995 76.0995C97.1326 75.9865 97.0886 75.8614 97.07 75.7314C97.0515 75.6014 97.0587 75.469 97.0913 75.3418C97.1239 75.2146 97.1812 75.0951 97.26 74.99C97.3388 74.885 97.4375 74.7965 97.5505 74.7295C97.6635 74.6626 97.7886 74.6186 97.9186 74.6001C98.0486 74.5815 98.181 74.5887 98.3082 74.6213C98.4354 74.6539 98.5549 74.7112 98.66 74.79C98.82 74.91 114.46 86.62 122.58 82.6C122.816 82.4916 123.085 82.4793 123.33 82.5658C123.575 82.6523 123.777 82.8308 123.893 83.0635C124.009 83.2962 124.029 83.5648 123.95 83.8124C123.871 84.0601 123.699 84.2672 123.47 84.39C121.963 85.0931 120.313 85.4355 118.65 85.39Z" fill="#093F68"/>
<path d="M43.66 63.1L42.99 67.81L36.35 114.67L35.78 118.67L3.93 116.1C2.34019 109.179 1.53842 102.101 1.54 95C1.52458 81.8047 4.3128 68.7566 9.72 56.72L43.66 63.1Z" fill="#7B81FF"/>
<path d="M35.78 119.68H35.7L3.85 117.11C3.6393 117.092 3.43965 117.008 3.27974 116.87C3.11983 116.731 3.00789 116.546 2.96 116.34C1.35359 109.34 0.541793 102.182 0.540002 95C0.512998 81.6619 3.33244 68.4715 8.81 56.31C8.90094 56.1033 9.05916 55.9335 9.25888 55.8282C9.45861 55.7229 9.6881 55.6883 9.91 55.73L43.84 62.12C44.0932 62.1665 44.3188 62.3089 44.4697 62.5175C44.6205 62.7262 44.6851 62.9849 44.65 63.24L36.77 118.82C36.7363 119.059 36.6175 119.277 36.4357 119.435C36.2538 119.593 36.0209 119.68 35.78 119.68ZM4.78 115.17L34.96 117.61L42.56 63.91L10.35 57.85C5.18076 69.552 2.52029 82.2071 2.54 95C2.53786 101.784 3.27895 108.548 4.75 115.17H4.78Z" fill="#093F68"/>
<path d="M21.74 112.5C24.0706 112.5 25.96 110.611 25.96 108.28C25.96 105.949 24.0706 104.06 21.74 104.06C19.4094 104.06 17.52 105.949 17.52 108.28C17.52 110.611 19.4094 112.5 21.74 112.5Z" fill="#093F68"/>
<path d="M21.74 113.49C20.7076 113.49 19.6983 113.184 18.8399 112.61C17.9815 112.037 17.3124 111.221 16.9173 110.268C16.5223 109.314 16.4189 108.264 16.6203 107.252C16.8217 106.239 17.3189 105.309 18.0489 104.579C18.7789 103.849 19.709 103.352 20.7216 103.15C21.7342 102.949 22.7838 103.052 23.7376 103.447C24.6914 103.842 25.5067 104.511 26.0803 105.37C26.6539 106.228 26.96 107.238 26.96 108.27C26.96 108.955 26.825 109.634 26.5627 110.268C26.3003 110.901 25.9158 111.476 25.4311 111.961C24.9464 112.446 24.3709 112.83 23.7376 113.093C23.1043 113.355 22.4255 113.49 21.74 113.49ZM21.74 105.06C21.1027 105.06 20.4798 105.249 19.95 105.603C19.4203 105.958 19.0076 106.461 18.7642 107.05C18.5207 107.639 18.4576 108.287 18.5826 108.912C18.7077 109.537 19.0153 110.11 19.4667 110.56C19.918 111.01 20.4927 111.316 21.118 111.439C21.7432 111.562 22.391 111.497 22.9792 111.252C23.5674 111.007 24.0696 110.592 24.4222 110.062C24.7748 109.531 24.962 108.907 24.96 108.27C24.9574 107.418 24.6169 106.601 24.0134 106C23.4098 105.398 22.5923 105.06 21.74 105.06Z" fill="#093F68"/>
<path d="M188.46 95C188.462 102.104 187.661 109.186 186.07 116.11L154.22 118.68L153.12 110.94L146.77 66.14L146.34 63.14L180.28 56.76C185.682 68.7843 188.47 81.8181 188.46 95Z" fill="#7B81FF"/>
<path d="M154.22 119.68C153.977 119.682 153.742 119.596 153.558 119.438C153.374 119.28 153.254 119.06 153.22 118.82L145.34 63.24C145.305 62.9849 145.369 62.7262 145.52 62.5175C145.671 62.3089 145.897 62.1665 146.15 62.12L180.08 55.73C180.302 55.6883 180.531 55.7229 180.731 55.8282C180.931 55.9335 181.089 56.1033 181.18 56.31C186.661 68.4708 189.484 81.6611 189.46 95C189.444 102.18 188.619 109.335 187 116.33C186.952 116.536 186.84 116.721 186.68 116.86C186.52 116.998 186.321 117.082 186.11 117.1L154.26 119.67L154.22 119.68ZM147.47 63.91L155.08 117.61L185.25 115.17C186.721 108.548 187.462 101.784 187.46 95C187.489 82.2093 184.839 69.5542 179.68 57.85L147.47 63.91Z" fill="#093F68"/>
<path d="M168.26 112.5C170.591 112.5 172.48 110.611 172.48 108.28C172.48 105.949 170.591 104.06 168.26 104.06C165.929 104.06 164.04 105.949 164.04 108.28C164.04 110.611 165.929 112.5 168.26 112.5Z" fill="#093F68"/>
<path d="M168.26 113.49C167.228 113.49 166.218 113.184 165.36 112.61C164.501 112.037 163.832 111.221 163.437 110.268C163.042 109.314 162.939 108.264 163.14 107.252C163.342 106.239 163.839 105.309 164.569 104.579C165.299 103.849 166.229 103.352 167.242 103.15C168.254 102.949 169.304 103.052 170.258 103.447C171.211 103.842 172.027 104.511 172.6 105.37C173.174 106.228 173.48 107.238 173.48 108.27C173.48 109.654 172.93 110.982 171.951 111.961C170.972 112.94 169.644 113.49 168.26 113.49ZM168.26 105.06C167.623 105.06 167 105.249 166.47 105.603C165.94 105.958 165.528 106.461 165.284 107.05C165.041 107.639 164.978 108.287 165.103 108.912C165.228 109.537 165.535 110.11 165.987 110.56C166.438 111.01 167.013 111.316 167.638 111.439C168.263 111.562 168.911 111.497 169.499 111.252C170.087 111.007 170.59 110.592 170.942 110.062C171.295 109.531 171.482 108.907 171.48 108.27C171.477 107.418 171.137 106.601 170.533 106C169.93 105.398 169.112 105.06 168.26 105.06Z" fill="#093F68"/>
</svg>
