<?xml version="1.0" encoding="UTF-8"?>
<svg xmlns="http://www.w3.org/2000/svg" viewBox="0 0 64 64" width="512" height="512"><g id="outline"><path style="fill:#FFFFFF;" d="M54,38.426V35a1,1,0,0,0-1-1H52V2H50V15.7a11.029,11.029,0,0,0-6-4.269V8a1,1,0,0,0-1-1H42V2H40V7H39a1,1,0,0,0-1,1v3.426A10.994,10.994,0,1,0,50,28.305V34H49a1,1,0,0,0-1,1v3.426a11,11,0,1,0,6,0ZM40,9h2v2.051c-.33-.03-.662-.051-1-.051s-.67.021-1,.051Zm-.3,4.105A3.94,3.94,0,0,1,41,16a3.98,3.98,0,0,1-7.716,1.391A9.006,9.006,0,0,1,39.7,13.105ZM32.27,24.146a8.694,8.694,0,0,1,.042-4.458A5.97,5.97,0,0,0,43,16a6.06,6.06,0,0,0-.037-.648A6.988,6.988,0,0,1,32.27,24.146ZM41,31a8.98,8.98,0,0,1-7.17-3.583A8.986,8.986,0,0,0,44.178,13.59,8.994,8.994,0,0,1,41,31Zm9,5h2v2.051c-.33-.03-.662-.051-1-.051s-.67.021-1,.051ZM42,49a1,1,0,1,1,1,1A1,1,0,0,1,42,49Zm18,0a1,1,0,1,1-1-1A1,1,0,0,1,60,49Zm-1-3a3,3,0,0,0,0,6,2.963,2.963,0,0,0,.493-.05,8.986,8.986,0,0,1-16.986,0A2.963,2.963,0,0,0,43,52a3,3,0,0,0,0-6,2.963,2.963,0,0,0-.493.05,8.986,8.986,0,0,1,16.986,0A2.963,2.963,0,0,0,59,46Z"/><path style="fill:#FFFFFF;" d="M28,2V36.184a2.977,2.977,0,0,0-.8,5.2l-6.908,6.908A1,1,0,0,0,21,50h3.586l-4.293,4.293A1,1,0,0,0,21,56h3.586l-4.293,4.293A1,1,0,0,0,21,62H37a1,1,0,0,0,.707-1.707L33.414,56H37a1,1,0,0,0,.707-1.707L33.414,50H37a1,1,0,0,0,.707-1.707L30.8,41.385a2.977,2.977,0,0,0-.8-5.2V2Zm1,36a1,1,0,1,1-1,1A1,1,0,0,1,29,38Zm5.586,10H31a1,1,0,0,0-.707,1.707L34.586,54H31a1,1,0,0,0-.707,1.707L34.586,60H23.414l4.293-4.293A1,1,0,0,0,27,54H23.414l4.293-4.293A1,1,0,0,0,27,48H23.414L29,42.414Z"/><path style="fill:#FFFFFF;" d="M13,47a10.995,10.995,0,0,0,3-21.574V22a1,1,0,0,0-1-1H14V2H12V21H11a1,1,0,0,0-1,1v3.426A10.995,10.995,0,0,0,13,47ZM12,23h2v2.051c-.33-.03-.662-.051-1-.051s-.67.021-1,.051Zm1,4a9.01,9.01,0,0,1,9,9c0,.057-.008.113-.009.17A8.973,8.973,0,0,1,18,37a4.705,4.705,0,0,1-3.808-1.721A6.615,6.615,0,0,0,9,33a8.21,8.21,0,0,0-4.866,1.508A9.007,9.007,0,0,1,13,27ZM4.57,36.632A6.822,6.822,0,0,1,9,35a4.705,4.705,0,0,1,3.808,1.721A6.615,6.615,0,0,0,18,39a11.15,11.15,0,0,0,3.653-.554,8.993,8.993,0,0,1-17.6-1.467C4.227,36.862,4.4,36.75,4.57,36.632Z"/><path style="fill:#FFFFFF;" d="M8.411,41.808A6.321,6.321,0,0,0,11.982,43l.036-2a4.3,4.3,0,0,1-2.429-.808,4.351,4.351,0,0,1-1.618-2.431l-1.942.478A6.285,6.285,0,0,0,8.411,41.808Z"/><rect style="fill:#FFFFFF;" x="14" y="41" width="2" height="2"/><rect style="fill:#FFFFFF;" x="16" y="31" width="2" height="2"/><path style="fill:#FFFFFF;" d="M52,50a3,3,0,1,0,3,3A3,3,0,0,0,52,50Zm0,4a1,1,0,1,1,1-1A1,1,0,0,1,52,54Z"/><path style="fill:#FFFFFF;" d="M53,45a3,3,0,1,0-3,3A3,3,0,0,0,53,45Zm-4,0a1,1,0,1,1,1,1A1,1,0,0,1,49,45Z"/></g></svg>
