<svg id="Layer_1" data-name="Layer 1" xmlns="http://www.w3.org/2000/svg" width="277.92" height="77.568" viewBox="0 0 208.469 58.178"><defs><style>.cls-1{fill:#455a21}</style></defs><title>logo</title><path class="cls-1" d="M165.016 43.618a4.416 4.416 0 0 0-.591.045c-.029.347-.058 1.435-.058 1.66s.028 1.572.058 1.979c.227.015.363.029.576.029 1.253 0 2.264-.468 2.264-1.888s-.997-1.825-2.249-1.825zm32.172-34.133c1.109 0 2.44-.235 2.44-1.623 0-1.456-1.346-1.7-2.538-1.678h-.556a50.269 50.269 0 0 0-.069 2.5 6.905 6.905 0 0 0 .043.8zm-6.81 4.8c1.152 0 2.011-1.525 2.011-4.146s-.858-4.147-2.011-4.147-2.011 1.525-2.011 4.147.86 4.144 2.012 4.144zm-33.322 29.151c-1.192 0-1.933 1.494-1.933 4.273s.74 4.273 1.933 4.273 1.933-1.5 1.933-4.273-.74-4.273-1.933-4.273zM116.834 9.485c1.109 0 2.44-.235 2.44-1.623 0-1.456-1.346-1.7-2.538-1.678h-.556a51.51 51.51 0 0 0-.069 2.5 6.905 6.905 0 0 0 .043.8zm.536 34.162c-.227 0-.346.031-.5.031a117.63 117.63 0 0 0-.061 3.941c0 1.373.046 2.732.046 4.107a3.889 3.889 0 0 0 .559.045c1.826 0 2.78-.816 2.78-4.123.006-3.155-.966-4.001-2.824-4.001zm35.147-34.162c1.108 0 2.442-.235 2.442-1.623 0-1.456-1.345-1.7-2.541-1.678h-.553a47.958 47.958 0 0 0-.069 2.5 7.383 7.383 0 0 0 .041.8zm-80.323 30.7c0-14.468 9.564-24.031 19.292-24.031a13.017 13.017 0 0 1 3.759.49v-1.633A110.1 110.1 0 0 0 94.513 0h-46.64v19.425a17.682 17.682 0 0 1 9.563-3.269c8.256 0 11.605 6.212 11.605 15.04v10.463a122.873 122.873 0 0 0 .718 16.52h11.684c-5.162-2.389-9.25-8.522-9.25-17.992zm66.066-25.9c1.152 0 2.011-1.525 2.011-4.146s-.858-4.147-2.011-4.147-2.01 1.525-2.01 4.147.858 4.144 2.01 4.144zM92.1 58.178h4.785a9.042 9.042 0 0 1-.824-2.461 18.048 18.048 0 0 1-3.961 2.461zM108.244 0a40.022 40.022 0 0 1 .242 6.1v35.559a122.873 122.873 0 0 0 .718 16.52h99.265V0zm89.472 5.186c1.789 0 3.243.582 3.243 2.635a2.493 2.493 0 0 1-1.872 2.4c.418 1.013 1.152 2.829 2.123 4.868h-1.6a11.685 11.685 0 0 0-.43-1.207l-1.331-3.453h-1.33a51.525 51.525 0 0 0-.029 1.622c0 1.04.041 1.969.084 3.038h-1.386c.026-.555.055-1.567.055-1.887 0-1.831 0-6.477-.084-8.016zm-7.337-.194c2.039 0 3.454 2.219 3.454 5.145s-1.415 5.145-3.454 5.145-3.454-2.219-3.454-5.145 1.415-5.145 3.454-5.145zm-4.2.194V6.3c-.749-.042-1.665-.111-2.592-.111-.36 0-.724.014-1.04.027a267.144 267.144 0 0 0-.029 3.467h1.9a6.429 6.429 0 0 0 .734-.068v1.081c-.279-.027-.556-.1-.832-.1h-1.8c.015.638.055 3.841.084 4.494h-1.415c.055-.416.055-1.776.055-2.275V8.431c0-1.248-.055-2.718-.068-3.246zm-15.259 7.961a3.665 3.665 0 0 0 2.414 1.081 1.681 1.681 0 0 0 1.913-1.747c0-2.358-4.3-1.775-4.3-4.411a3.222 3.222 0 0 1 3.37-3.079 3.574 3.574 0 0 1 1.4.291v1.554a2.849 2.849 0 0 0-1.844-.679c-1.291 0-1.734.776-1.734 1.483 0 1.788 4.3 1.442 4.3 4.479 0 1.553-1.028 3.162-3.522 3.162a3.876 3.876 0 0 1-2-.541zm-1-7.961V6.3c-.928-.042-1.844-.111-2.774-.111-.359 0-.72.014-1.051.027-.015.264-.015 2.441-.015 3.329h1.469c.4 0 .9-.027 1.306-.056v1.04a34.401 34.401 0 0 0-2.055-.07c-.247 0-.483.014-.72.028 0 .68 0 3.12.028 3.6h1.44a22.557 22.557 0 0 0 2.553-.11v1.11h-5.351c.055-.416.055-1.776.055-2.275V8.431c0-1.248-.055-2.718-.069-3.246zm-7.861-.138a3.4 3.4 0 0 1 1.288.235v1.5a2.566 2.566 0 0 0-1.637-.623c-1.981 0-2.9 1.941-2.9 4.077 0 1.97.789 4.049 2.7 4.049a2.986 2.986 0 0 0 1.967-.943l.5.527a3.958 3.958 0 0 1-2.871 1.415c-2.3 0-3.745-2.081-3.745-4.674.009-3.081 1.953-5.564 4.699-5.564zm-9.017.138c1.789 0 3.247.582 3.247 2.635a2.5 2.5 0 0 1-1.872 2.4c.414 1.013 1.148 2.829 2.122 4.868h-1.6a11.882 11.882 0 0 0-.429-1.207l-1.334-3.453h-1.331a54.982 54.982 0 0 0-.028 1.622c0 1.04.043 1.969.083 3.038h-1.386a53.49 53.49 0 0 0 .056-1.887c0-1.831 0-6.477-.084-8.016zm-8.6 0c-.041.416-.069 1.9-.069 2.052v4.8c0 1.664.527 2.33 1.621 2.33s1.764-.583 1.764-2.607V7.21c0-.249-.055-1.858-.084-2.025h1.291c-.055.361-.1 1.762-.1 1.886v4.257c0 2.316-.331 3.953-3.024 3.953-2.218 0-2.8-1.387-2.8-3.357V8.778c0-.652 0-3.093-.055-3.592zm1.973 13.14c-.167 2.174-.167 3.345-.167 4.794v8.5c0 2.593-.585 4.265-1.924 5.324a7.935 7.935 0 0 1-5.24 1.673 7.382 7.382 0 0 1-4.848-1.563c-1.562-1.337-1.925-2.926-1.925-6.187V23.12c0-1.449 0-2.62-.167-4.794h5.185c-.167 2.174-.167 3.345-.167 4.794v8.557c0 2.23.639 3.484 2.676 3.484 2.2 0 2.76-1.421 2.76-3.734V23.12c0-1.449 0-2.62-.167-4.794zM138.26 4.992c2.04 0 3.454 2.219 3.454 5.145s-1.414 5.145-3.454 5.145-3.453-2.219-3.453-5.145 1.414-5.145 3.453-5.145zm-9.96 8.155a3.665 3.665 0 0 0 2.414 1.081 1.681 1.681 0 0 0 1.913-1.747c0-2.358-4.3-1.775-4.3-4.411a3.222 3.222 0 0 1 3.37-3.079 3.575 3.575 0 0 1 1.4.291v1.554a2.85 2.85 0 0 0-1.844-.679c-1.291 0-1.734.776-1.734 1.483 0 1.788 4.3 1.442 4.3 4.479 0 1.553-1.025 3.162-3.52 3.162a3.875 3.875 0 0 1-2-.541zm-1-7.961V6.3c-.931-.042-1.847-.111-2.774-.111-.36 0-.723.014-1.055.027-.014.264-.014 2.441-.014 3.329h1.469c.4 0 .9-.027 1.3-.056v1.04c-.68-.041-1.374-.07-2.054-.07-.248 0-.483.014-.72.028 0 .68 0 3.12.028 3.6h1.44a22.579 22.579 0 0 0 2.553-.11v1.11h-5.353c.055-.416.055-1.776.055-2.275V8.431c0-1.248-.055-2.718-.069-3.246zm-12.5 0h2.552c1.789 0 3.244.582 3.244 2.635a2.494 2.494 0 0 1-1.873 2.4c.418 1.013 1.152 2.829 2.123 4.868h-1.6a11.906 11.906 0 0 0-.429-1.207l-1.317-3.454h-1.331a51.732 51.732 0 0 0-.028 1.622c0 1.04.04 1.969.083 3.038h-1.389c.029-.555.058-1.567.058-1.887 0-1.83 0-6.476-.083-8.015zm2.858 47.914h-2.779c.031-1.752.06-3.517.06-5.269 0-1.843-.014-3.67-.043-5.513h2.869c3.2.062 4.425 2.386 4.425 5.376-.001 3.081-1.19 5.406-4.532 5.406zm2.727-23.6v4.07c0 1.7.026 3.29.139 4.655h-5.268a97.776 97.776 0 0 0 .279-9.951 97.759 97.759 0 0 0-.279-9.95h5.268c-.112 1.366-.139 2.955-.139 4.654v3.206c.614.027 1.225.055 2.117.055s1.507-.028 2.118-.055V22.98c0-1.7-.026-3.289-.139-4.654h5.269a97.724 97.724 0 0 0-.279 9.95 97.741 97.741 0 0 0 .279 9.951h-5.269c.112-1.365.139-2.954.139-4.655V29.5c-.611-.027-1.225-.055-2.118-.055s-1.502.03-2.116.055zM130 53.1h-6.254c0-.648.046-3.533.046-4.123 0-2.2.046-4.454-.089-6.659h6.1v1.616a20.38 20.38 0 0 0-3.172-.226c-.3 0-.5.015-.936.029-.032.469-.032 1.239-.032 1.737 0 .257 0 .574.032 1.39l2.776-.091V48.4l-2.809-.091a47.336 47.336 0 0 0-.043 1.994c0 .438.015.936.043 1.4 1.449-.031 2.9-.045 4.336-.167zm5.225 0h-1.964a60.033 60.033 0 0 1-.481-1.721c-.59-2.355-1.933-6.917-2.584-9.061h2.114c.438 2.446 1.207 5.181 1.8 7.747h.029a60.791 60.791 0 0 0 1.9-7.747h1.761a289.41 289.41 0 0 0-2.915 9.8zm9.875 0h-6.251c0-.648.044-3.533.044-4.123 0-2.2.046-4.454-.09-6.659h6.1v1.616a20.4 20.4 0 0 0-3.172-.226c-.3 0-.5.015-.937.029-.031.469-.031 1.239-.031 1.737 0 .257 0 .574.031 1.39l2.78-.091V48.4l-2.812-.091a45.705 45.705 0 0 0-.043 1.994c0 .438.014.936.043 1.4 1.452-.031 2.9-.045 4.335-.167zm7.173 0h-5.963c.058-1.556.075-3.125.075-4.682 0-2.038-.093-4.349-.167-6.1h2.114c-.029.831-.075 2.326-.075 3.065 0 .861 0 5.24.046 6.328a23.511 23.511 0 0 0 3.97-.182zm-3.563-14.873a98.8 98.8 0 0 0 .276-9.951 98.781 98.781 0 0 0-.276-9.95h5.854l3.707 10.48h.055l3.791-10.48h5.908a97.724 97.724 0 0 0-.279 9.95 97.741 97.741 0 0 0 .279 9.951h-5.127c.167-2.174.167-3.345.167-4.795v-8.194H163l-3.786 10.452h-2.788l-3.875-10.7h-.051v8.445c0 1.45 0 2.621.167 4.795zm8.351 15.084c-2.249 0-3.926-2.264-3.926-5.6s1.677-5.6 3.926-5.6 3.927 2.265 3.927 5.6-1.682 5.6-3.932 5.6zm8.034-4.619c-.256 0-.3-.031-.694-.047-.028.408-.028 1.5-.028 1.964 0 .664.015 1.071.075 2.491h-2.025c.136-1.948.075-3.911.075-5.859 0-1.631.06-3.291-.029-4.923h3.278c2.008.062 3.485.936 3.485 3.126-.005 2.582-1.907 3.248-4.142 3.248zm11.714 4.408c.06-2.853.046-5.708.1-8.547h-.029c-.68 2.25-1.374 4.516-2.039 6.795H173.7a151.204 151.204 0 0 0-2.054-6.795h-.029c.029 2.718.075 5.451.121 8.184 0 .121.015.317.015.362h-1.769c.106-1.66.182-3.156.182-6.7 0-1.449-.029-2.431-.061-4.077h2.6a874.867 874.867 0 0 1 1.691 5.784h.028c.576-1.918 1.136-3.836 1.619-5.784h2.674c-.047 1.193-.093 1.994-.093 4.227 0 1.979-.015 5.014.121 6.555zm2.725-18.775h-5.214a24.812 24.812 0 0 0-1 3.9h-4.125c1.365-3.234 2.509-6.521 5.908-17.979l-.53-1.922h5.464c.557 2.731.893 3.874 3.817 13.295a62.286 62.286 0 0 0 2.342 6.606h-5.574a32.29 32.29 0 0 0-1.089-3.9zm7.484 18.775h-6.254c0-.648.046-3.533.046-4.123 0-2.2.046-4.454-.089-6.659h6.1v1.616a20.417 20.417 0 0 0-3.175-.226c-.3 0-.5.015-.936.029-.029.469-.029 1.239-.029 1.737 0 .257 0 .574.029 1.39l2.779-.091V48.4l-2.809-.091a47.338 47.338 0 0 0-.046 1.994c0 .438.018.936.046 1.4 1.449-.031 2.9-.045 4.336-.167zm.432-34.774h4.318l6.412 11.288h.055v-1.338a98.746 98.746 0 0 0-.276-9.95h4.067a98.746 98.746 0 0 0-.276 9.95 98.762 98.762 0 0 0 .276 9.951h-3.9l-6.83-12.069h-.055v2.118a98.758 98.758 0 0 0 .276 9.951h-4.067a98.758 98.758 0 0 0 .276-9.951 98.741 98.741 0 0 0-.277-9.95zm7.466 34.774h-1.359c-.182-.437-.274-.619-.772-1.645l-2.475-5.149a4.309 4.309 0 0 1-.409-1.178h-.028c0 2.657.015 5.315.118 7.973h-1.766c.046-1.66.046-3.8.046-5.708 0-1.358-.015-3.745-.093-5.074h2.055c.968 1.722 1.615 3.384 2.431 5.074a9.549 9.549 0 0 1 .712 1.722l.028-.03c-.106-2.235-.136-4.5-.21-6.766h1.736c-.031 1-.077 3.837-.077 6.433-.001 1.796.031 3.473.063 4.348zm7.987-9.211a24.753 24.753 0 0 0-2.491-.211c0 1.8-.032 3.578-.032 5.375 0 1.268.032 2.7.09 4.047h-2.083c.061-2.355.121-3.624.121-5.768 0-1.223.029-2.431-.015-3.653a15.493 15.493 0 0 0-2.509.211v-1.572h6.916zM0 0v58.178h5.295a123.044 123.044 0 0 0 .717-16.52v-7.847c0-5.885 0-11.443-1.391-16.675h13.161a28.619 28.619 0 0 1 1.144 5.476c2.86-3.841 6.294-6.456 10.382-6.456a4.693 4.693 0 0 1 1.8.245v10.871a11.2 11.2 0 0 0-2.451-.327c-6.213 0-8.911 5.722-8.911 14.714a123.215 123.215 0 0 0 .716 16.52h13.451a122.89 122.89 0 0 0 .718-16.52V16.646A121.908 121.908 0 0 0 33.9 0zm95.244 45.418V26.945c0-1.471-.573-2.615-2.29-2.615-4 0-7.028 6.212-7.028 14.876 0 7.275 2.042 10.954 5.64 10.954 2.37 0 3.678-1.39 3.678-4.742zm81.78-20.348c-.446 1.282-1.449 4.655-1.757 5.965h3.433c-.306-1.31-1.253-4.683-1.616-5.965zM51.8 25.065c-1.881 0-3.923 1.063-3.923 2.288v14.3a122.884 122.884 0 0 0 .716 16.52h6.5a122.889 122.889 0 0 0 .715-16.52V30.377c-.008-3.269-1.316-5.312-4.008-5.312z"/></svg>