<svg width="200" height="188" viewBox="0 0 200 188" fill="none" xmlns="http://www.w3.org/2000/svg">
<path d="M106.011 186.647C157.179 186.647 198.658 145.168 198.658 94C198.658 42.8325 157.179 1.35305 106.011 1.35305C54.8438 1.35305 13.3643 42.8325 13.3643 94C13.3643 145.168 54.8438 186.647 106.011 186.647Z" fill="#7B81FF"/>
<path d="M106.011 188C87.4193 188.003 69.2441 182.492 53.7841 172.165C38.3241 161.837 26.2738 147.158 19.1571 129.982C12.0404 112.806 10.177 93.9048 13.8025 75.6698C17.428 57.4347 26.3796 40.6842 39.5252 27.5367C52.6708 14.3893 69.4199 5.4353 87.6545 1.80721C105.889 -1.82089 124.79 0.0398396 141.967 7.15408C159.144 14.2683 173.826 26.3165 184.155 41.775C194.485 57.2336 199.998 75.408 199.998 94C199.97 118.919 190.059 142.81 172.439 160.432C154.82 178.054 130.931 187.968 106.011 188ZM106.011 2.69265C87.9486 2.69 70.2908 8.04396 55.2712 18.0774C40.2515 28.1108 28.5446 42.373 21.6311 59.0603C14.7176 75.7475 12.908 94.1102 16.4312 111.826C19.9544 129.542 28.6521 145.815 41.4244 158.587C54.1966 171.359 70.4697 180.057 88.1854 183.58C105.901 187.103 124.264 185.294 140.951 178.38C157.638 171.467 171.901 159.76 181.934 144.74C191.967 129.72 197.321 112.063 197.319 94C197.29 69.7925 187.661 46.5846 170.544 29.4673C153.427 12.35 130.219 2.72101 106.011 2.69265Z" fill="#093F68"/>
<path d="M106.011 170.773C148.412 170.773 182.784 136.4 182.784 94C182.784 51.5996 148.412 17.2273 106.011 17.2273C63.611 17.2273 29.2386 51.5996 29.2386 94C29.2386 136.4 63.611 170.773 106.011 170.773Z" fill="white"/>
<path d="M106.011 172.112C90.5622 172.112 75.46 167.531 62.6145 158.948C49.769 150.365 39.7571 138.165 33.845 123.892C27.9329 109.619 26.386 93.9134 29.3999 78.7611C32.4139 63.6088 39.8534 49.6905 50.7776 38.7663C61.7018 27.8421 75.6201 20.4026 90.7724 17.3886C105.925 14.3747 121.63 15.9215 135.904 21.8337C150.177 27.7458 162.376 37.7577 170.959 50.6032C179.542 63.4487 184.124 78.5509 184.124 94C184.102 114.71 175.866 134.566 161.222 149.21C146.577 163.855 126.721 172.091 106.011 172.112ZM106.011 18.5803C91.0915 18.5803 76.5068 23.0048 64.1016 31.294C51.6964 39.5833 42.0279 51.3652 36.319 65.1495C30.61 78.9339 29.117 94.1017 32.0286 108.735C34.9403 123.368 42.126 136.808 52.6768 147.357C63.2277 157.906 76.6698 165.09 91.3033 167.999C105.937 170.908 121.104 169.412 134.888 163.701C148.671 157.989 160.451 148.319 168.738 135.912C177.025 123.505 181.447 108.92 181.444 94C181.42 74.0028 173.464 54.8319 159.322 40.6929C145.181 26.554 126.009 18.6016 106.011 18.5803Z" fill="#093F68"/>
<path d="M106.011 151C137.492 151 163.011 125.48 163.011 94C163.011 62.5197 137.492 36.9999 106.011 36.9999C74.531 36.9999 49.0112 62.5197 49.0112 94C49.0112 125.48 74.531 151 106.011 151Z" fill="#7B81FF"/>
<path d="M106.011 152.38C94.4685 152.393 83.181 148.983 73.5766 142.58C63.9723 136.177 56.4826 127.07 52.0549 116.41C47.6272 105.75 46.4605 94.0167 48.7024 82.6936C50.9442 71.3706 56.4938 60.9667 64.6493 52.7981C72.8048 44.6295 83.1997 39.0632 94.5191 36.8031C105.839 34.5431 117.574 35.691 128.241 40.1015C138.908 44.512 148.027 51.9871 154.446 61.5811C160.864 71.1752 164.292 82.4572 164.297 94C164.287 109.464 158.146 124.293 147.22 135.236C136.294 146.179 121.475 152.344 106.011 152.38ZM106.011 38.3663C94.9955 38.353 84.2234 41.608 75.0581 47.7192C65.8929 53.8305 58.7467 62.5233 54.5238 72.6975C50.3008 82.8718 49.1911 94.0701 51.335 104.875C53.4789 115.681 58.78 125.607 66.5675 133.398C74.355 141.189 84.2787 146.495 95.0829 148.644C105.887 150.793 117.086 149.689 127.262 145.471C137.438 141.253 146.135 134.111 152.25 124.949C158.366 115.786 161.626 105.016 161.618 94C161.601 79.2526 155.738 65.1136 145.315 54.6806C134.892 44.2476 120.759 38.3714 106.011 38.3395V38.3663Z" fill="#093F68"/>
<path d="M106.011 132.982C127.541 132.982 144.994 115.529 144.994 94C144.994 72.4706 127.541 55.0176 106.011 55.0176C84.4819 55.0176 67.0289 72.4706 67.0289 94C67.0289 115.529 84.4819 132.982 106.011 132.982Z" fill="white"/>
<path d="M106.011 134.322C98.0358 134.325 90.2386 131.962 83.6059 127.533C76.9733 123.104 71.803 116.808 68.7491 109.44C65.6951 102.072 64.8947 93.9644 66.449 86.1418C68.0033 78.3192 71.8426 71.1332 77.4812 65.4928C83.1198 59.8523 90.3045 56.0106 98.1265 54.4537C105.949 52.8968 114.057 53.6945 121.425 56.746C128.794 59.7975 135.092 64.9657 139.524 71.5969C143.955 78.2281 146.32 86.0245 146.32 94C146.309 104.689 142.06 114.936 134.503 122.496C126.946 130.055 116.7 134.308 106.011 134.322ZM106.011 56.3706C98.5651 56.3679 91.2854 58.5737 85.093 62.7089C78.9006 66.8442 74.0738 72.7231 71.223 79.6019C68.3723 86.4808 67.6257 94.0506 69.0777 101.354C70.5298 108.657 74.1152 115.366 79.3804 120.631C84.6457 125.896 91.3542 129.482 98.6575 130.934C105.961 132.386 113.531 131.639 120.409 128.788C127.288 125.938 133.167 121.111 137.302 114.918C141.438 108.726 143.643 101.446 143.641 94C143.627 84.0244 139.658 74.4615 132.604 67.4076C125.55 60.3538 115.987 56.3847 106.011 56.3706Z" fill="#093F68"/>
<path d="M106.011 115.594C117.938 115.594 127.606 105.926 127.606 94C127.606 82.0738 117.938 72.4056 106.011 72.4056C94.0851 72.4056 84.4169 82.0738 84.4169 94C84.4169 105.926 94.0851 115.594 106.011 115.594Z" fill="#7B81FF"/>
<path d="M106.011 116.934C101.475 116.934 97.0413 115.589 93.2699 113.069C89.4984 110.549 86.5589 106.967 84.8231 102.776C83.0872 98.5858 82.6331 93.9746 83.518 89.5258C84.4029 85.077 86.5872 80.9906 89.7945 77.7832C93.0019 74.5758 97.0884 72.3916 101.537 71.5067C105.986 70.6218 110.597 71.0759 114.788 72.8118C118.978 74.5476 122.56 77.4871 125.08 81.2586C127.6 85.03 128.945 89.4641 128.945 94C128.938 100.08 126.52 105.91 122.22 110.209C117.921 114.508 112.092 116.927 106.011 116.934ZM106.011 73.7452C102.005 73.7452 98.0892 74.9331 94.7584 77.1588C91.4275 79.3844 88.8313 82.5478 87.2983 86.2488C85.7653 89.9499 85.3642 94.0225 86.1457 97.9515C86.9272 101.881 88.8563 105.49 91.689 108.322C94.5217 111.155 98.1308 113.084 102.06 113.866C105.989 114.647 110.061 114.246 113.762 112.713C117.464 111.18 120.627 108.584 122.853 105.253C125.078 101.922 126.266 98.006 126.266 94C126.259 88.6303 124.123 83.4825 120.326 79.6855C116.529 75.8886 111.381 73.7523 106.011 73.7452Z" fill="#093F68"/>
<path d="M22.4335 27.9576L1.3347 37.442L31.9982 61.0726L54.0749 52.4455L22.4335 27.9576Z" fill="#F56132"/>
<path d="M31.9982 62.4122C31.7003 62.4114 31.4099 62.3177 31.1677 62.1442L0.517537 38.5136C0.335452 38.3721 0.192989 38.186 0.103929 37.9733C0.0148684 37.7605 -0.0177692 37.5284 0.00917588 37.2994C0.0361209 37.0704 0.121738 36.8522 0.257735 36.6659C0.393733 36.4797 0.575507 36.3317 0.785464 36.2363L21.8842 26.7519C22.1018 26.6578 22.3404 26.6231 22.5757 26.6513C22.8111 26.6796 23.0347 26.7698 23.2238 26.9127L54.8653 51.4006C55.0552 51.5453 55.2031 51.7382 55.2935 51.9593C55.3839 52.1803 55.4135 52.4215 55.3793 52.6579C55.3452 52.8942 55.2485 53.1172 55.0992 53.3036C54.9499 53.49 54.7535 53.6331 54.5304 53.7181L32.4537 62.3452C32.3062 62.3906 32.1526 62.4132 31.9982 62.4122ZM3.86656 37.7367L32.159 59.5588L51.3287 52.0704L22.2995 29.5115L3.86656 37.7367Z" fill="#093F68"/>
<path d="M21.978 26.6314L29.3592 7.30087L56.5532 33.2892L54.0749 52.4455L21.978 26.6314Z" fill="#F56132"/>
<path d="M54.0749 53.7851C53.7681 53.7864 53.4702 53.6824 53.2309 53.4904L21.0805 27.6763C20.858 27.4988 20.6979 27.2551 20.6232 26.9806C20.5485 26.706 20.5632 26.4148 20.6652 26.1491L28.0464 6.83202C28.1257 6.62445 28.2553 6.43987 28.4237 6.29488C28.5921 6.14989 28.7939 6.04906 29.0109 6.00147C29.244 5.93632 29.4904 5.93555 29.7239 5.99923C29.9575 6.06292 30.1694 6.18868 30.3371 6.36316L57.5445 32.3515C57.6959 32.4966 57.8112 32.6752 57.881 32.873C57.9508 33.0707 57.9732 33.2821 57.9464 33.4901L55.4547 52.6465C55.4241 52.8828 55.331 53.1068 55.185 53.2951C55.039 53.4835 54.8454 53.6295 54.6241 53.7181C54.4477 53.7784 54.2607 53.8013 54.0749 53.7851ZM23.6391 26.1893L53.1104 49.9137L55.2002 33.8384L29.9352 9.72557L23.6391 26.1893Z" fill="#093F68"/>
<path d="M106.36 97.4562C105.658 97.4517 104.979 97.2111 104.431 96.773L9.03743 20.9648C8.69344 20.7183 8.40318 20.4043 8.18432 20.042C7.96545 19.6798 7.82255 19.2768 7.7643 18.8576C7.70605 18.4384 7.73367 18.0117 7.84547 17.6035C7.95727 17.1953 8.15091 16.8141 8.41464 16.4831C8.67837 16.152 9.00668 15.8781 9.37959 15.6779C9.75249 15.4777 10.1622 15.3555 10.5838 15.3186C11.0055 15.2817 11.4302 15.331 11.8322 15.4633C12.2342 15.5957 12.6051 15.8085 12.9223 16.0887L108.302 91.9236C108.807 92.3272 109.174 92.8775 109.353 93.4987C109.531 94.1198 109.513 94.7811 109.3 95.3913C109.087 96.0014 108.689 96.5303 108.163 96.905C107.636 97.2797 107.006 97.4817 106.36 97.483V97.4562Z" fill="#FFBC0E"/>
<path d="M106.36 98.7958C105.355 98.7927 104.382 98.4479 103.6 97.8179L8.20685 22.0097C7.29126 21.2629 6.70933 20.1834 6.58878 19.008C6.46823 17.8327 6.81891 16.6575 7.56385 15.7404C8.30081 14.8197 9.37148 14.2272 10.543 14.0917C11.7145 13.9562 12.8922 14.2888 13.8198 15.017L109.213 90.8654C109.935 91.4428 110.459 92.2302 110.714 93.1186C110.969 94.0071 110.941 94.9527 110.635 95.8248C110.329 96.697 109.76 97.4526 109.006 97.9872C108.252 98.5218 107.351 98.809 106.427 98.8092L106.36 98.7958ZM10.9798 16.7183C10.6114 16.7208 10.2528 16.8374 9.95345 17.0522C9.65407 17.2669 9.42862 17.5692 9.30816 17.9174C9.18769 18.2655 9.17811 18.6425 9.28077 18.9964C9.38342 19.3502 9.59325 19.6635 9.88136 19.8932L105.261 95.7281C105.633 96.0092 106.099 96.1367 106.563 96.0843C107.027 96.032 107.452 95.8038 107.753 95.4468C107.899 95.2639 108.008 95.054 108.072 94.8291C108.137 94.6041 108.157 94.3686 108.131 94.136C108.105 93.9033 108.033 93.6781 107.92 93.4732C107.807 93.2683 107.655 93.0877 107.471 92.9417L12.0917 17.08C11.7671 16.851 11.3769 16.7334 10.9798 16.7451V16.7183Z" fill="#093F68"/>
</svg>
